<svg xmlns="http://www.w3.org/2000/svg" width="48" height="26" viewBox="0 0 48 26" fill="none">
<g clip-path="url(#clip0_2_653)">
<g clip-path="url(#clip1_2_653)">
<path d="M44.2457 6.19922H41.3161C40.4305 6.19922 39.7492 6.46587 39.3404 7.3325L33.7539 19.7986H37.7053C37.7053 19.7986 38.3866 18.132 38.5229 17.732C38.9317 17.732 42.815 17.732 43.36 17.732C43.4963 18.1987 43.8369 19.7319 43.8369 19.7319H47.3796L44.2457 6.19922ZM39.6129 14.9321C39.9536 14.1322 41.1118 11.1323 41.1118 11.1323C41.1118 11.199 41.4524 10.3324 41.5887 9.86572L41.8612 11.0657C41.8612 11.0657 42.6106 14.3322 42.7468 14.9988H39.6129V14.9321Z" fill="#3362AB"/>
<path d="M34.0267 15.3329C34.0267 18.1328 31.4379 19.9994 27.4183 19.9994C25.7151 19.9994 24.08 19.666 23.1943 19.2661L23.7394 16.1995L24.2163 16.3995C25.4426 16.9328 26.2601 17.1328 27.7589 17.1328C28.849 17.1328 30.0072 16.7328 30.0072 15.7996C30.0072 15.1996 29.5303 14.7996 28.0314 14.133C26.6007 13.4663 24.6932 12.3997 24.6932 10.4665C24.6932 7.79992 27.3502 6 31.0972 6C32.5279 6 33.7542 6.26665 34.5036 6.59997L33.9586 9.53317L33.6861 9.26652C33.0048 8.99986 32.1191 8.73321 30.8247 8.73321C29.394 8.79987 28.7127 9.39984 28.7127 9.93315C28.7127 10.5331 29.5303 10.9998 30.8247 11.5997C33.0048 12.5997 34.0267 13.733 34.0267 15.3329Z" fill="#3362AB"/>
<path d="M0.780273 6.33111L0.848402 6.06445H6.70743C7.52497 6.06445 8.13813 6.33111 8.34251 7.19773L9.63695 13.1975C8.34251 9.99761 5.34487 7.39773 0.780273 6.33111Z" fill="#F9B50B"/>
<path d="M17.8805 6.20143L11.9533 19.7341H7.93376L4.52734 8.40133C6.97996 9.93459 9.02381 12.3345 9.77322 14.0011L10.182 15.401L13.8609 6.13477H17.8805V6.20143Z" fill="#3362AB"/>
<path d="M19.447 6.13477H23.194L20.8096 19.7341H17.0625L19.447 6.13477Z" fill="#3362AB"/>
</g>
</g>
<defs>
<clipPath id="clip0_2_653">
<rect width="48" height="26" fill="white"/>
</clipPath>
<clipPath id="clip1_2_653">
<rect width="48" height="14" fill="white" transform="translate(0 6)"/>
</clipPath>
</defs>
</svg>