<svg xmlns="http://www.w3.org/2000/svg" width="28" height="28" viewBox="0 0 28 28" fill="none">
<g clip-path="url(#clip0_2_582)">
<path d="M24.8263 12.6913C25.2244 12.1766 25.5406 11.7636 25.774 11.452C27.4553 9.21664 28.184 7.7887 27.9607 7.16615L27.8731 7.02035C27.8149 6.93277 27.6639 6.85235 27.4212 6.77955C27.1781 6.70681 26.8671 6.69518 26.4883 6.74321L22.2898 6.77282C22.1926 6.76315 22.0947 6.76541 21.9981 6.77955C21.9009 6.79433 21.8379 6.80916 21.8085 6.82331C21.7792 6.83815 21.7551 6.85003 21.7358 6.85971L21.6775 6.90347C21.6289 6.93245 21.5755 6.98363 21.5173 7.05674C21.4589 7.1298 21.41 7.21449 21.3714 7.312C20.9146 8.48789 20.3948 9.58141 19.8116 10.5922C19.4519 11.1948 19.1213 11.7176 18.8204 12.1592C18.5191 12.6018 18.2664 12.9273 18.0622 13.1358C17.8582 13.3448 17.6734 13.5128 17.5083 13.6387C17.3429 13.7655 17.2167 13.8186 17.1295 13.7993C17.0465 13.7812 16.9639 13.7617 16.8816 13.7407C16.7454 13.6535 16.6359 13.5347 16.5536 13.3837C16.4709 13.2335 16.4152 13.0438 16.3858 12.8153C16.3569 12.587 16.3395 12.39 16.335 12.2246C16.3298 12.0595 16.3324 11.8264 16.3424 11.5248C16.3521 11.2234 16.3568 11.0197 16.3568 10.9125C16.3568 10.5436 16.3643 10.1425 16.3788 9.70991C16.3933 9.2776 16.4056 8.93476 16.4152 8.68203C16.4249 8.42966 16.4296 8.16215 16.4296 7.88017C16.4296 7.59882 16.4126 7.37733 16.3784 7.21675C16.344 7.05631 16.2928 6.89995 16.2255 6.75031C16.1573 6.59998 16.0578 6.48311 15.9264 6.40074C15.7952 6.318 15.6325 6.25267 15.4382 6.20371C14.9228 6.08683 14.2668 6.0244 13.47 6.01414C11.6622 5.99547 10.5008 6.11197 9.98578 6.36434C9.7817 6.47154 9.59692 6.61702 9.43182 6.8018C9.25672 7.01588 9.23257 7.1327 9.35907 7.15137C9.94233 7.23894 10.3551 7.44818 10.5981 7.77844L10.6857 7.95323C10.7536 8.08004 10.8215 8.30348 10.8897 8.62407C10.9577 8.94471 11.0015 9.29943 11.0211 9.68829C11.0697 10.3977 11.0697 11.0049 11.0211 11.5106C10.9725 12.0163 10.9264 12.4097 10.8827 12.691C10.8389 12.973 10.7732 13.2012 10.686 13.376C10.5984 13.5514 10.5402 13.6583 10.5109 13.6972C10.4816 13.7358 10.4574 13.7603 10.4381 13.77C10.3125 13.8183 10.1791 13.8429 10.0445 13.8428C9.9083 13.8428 9.74314 13.7745 9.54874 13.6383C9.35429 13.5028 9.15247 13.3155 8.94386 13.0772C8.73463 12.8394 8.4993 12.5062 8.23663 12.0784C7.97427 11.6513 7.70191 11.1455 7.42025 10.5626L7.18718 10.1396C7.04138 9.86791 6.84209 9.47164 6.58941 8.95175C6.33672 8.43187 6.11297 7.92909 5.91888 7.44271C5.84098 7.23894 5.72443 7.08346 5.569 6.97627L5.49626 6.93251C5.44765 6.89385 5.36976 6.85235 5.26288 6.80885C5.15494 6.76486 5.04244 6.73301 4.92746 6.71391L0.932988 6.74289C0.524826 6.74289 0.248001 6.83562 0.102198 7.02035L0.0439195 7.10761C0.0144645 7.15652 0 7.23442 0 7.34098C0 7.44818 0.0292972 7.5792 0.0875761 7.73437C0.670838 9.10503 1.30502 10.4268 1.99 11.6995C2.67536 12.973 3.27056 13.9986 3.77592 14.776C4.28129 15.554 4.79633 16.2873 5.32137 16.9774C5.8464 17.6675 6.19371 18.1095 6.36365 18.3036C6.5336 18.4984 6.6672 18.6442 6.76445 18.7411L7.12885 19.0913C7.36192 19.3244 7.70475 19.6037 8.15673 19.9295C8.60865 20.2553 9.10892 20.5759 9.65841 20.8914C10.2073 21.2075 10.8466 21.4647 11.5753 21.6643C12.3041 21.8638 13.0135 21.9439 13.7037 21.9047H15.3802C15.7205 21.8757 15.9779 21.7692 16.1528 21.5841L16.211 21.5113C16.2496 21.4534 16.2863 21.3633 16.3204 21.2419C16.3542 21.1205 16.3717 20.9866 16.3717 20.8411C16.3616 20.4233 16.3936 20.046 16.4663 19.7113C16.5391 19.3758 16.6217 19.1235 16.7142 18.9529C16.8066 18.7832 16.9108 18.6397 17.0276 18.5228C17.1442 18.4059 17.2266 18.3361 17.2755 18.3116C17.3241 18.2878 17.3632 18.2707 17.3921 18.2604C17.6252 18.1828 17.8997 18.2582 18.2158 18.4864C18.5316 18.7153 18.8281 18.9966 19.1053 19.332C19.382 19.6674 19.7149 20.0437 20.1038 20.4619C20.4923 20.8797 20.8325 21.1906 21.1242 21.3947L21.4159 21.5702C21.6102 21.6864 21.8626 21.7933 22.1739 21.8908C22.4849 21.9877 22.7572 22.0122 22.9902 21.9636L26.7223 21.905C27.0916 21.905 27.3784 21.8445 27.5825 21.7228C27.7866 21.6021 27.908 21.4675 27.9469 21.322C27.9855 21.1762 27.9881 21.0117 27.9543 20.8266C27.9203 20.6421 27.8861 20.5134 27.8524 20.4406C27.8183 20.3679 27.7866 20.3067 27.7573 20.2584C27.2713 19.3838 26.3432 18.3096 24.9729 17.0365L24.9436 17.0075L24.9291 16.9928L24.9146 16.9786H24.9C24.2778 16.3856 23.8844 15.9871 23.7192 15.7827C23.418 15.3945 23.3497 15.0008 23.5152 14.6023C23.6311 14.3002 24.0682 13.6635 24.8263 12.6913Z" fill="#1573FF"/>
</g>
<defs>
<clipPath id="clip0_2_582">
<rect width="28" height="28" fill="white"/>
</clipPath>
</defs>
</svg>