<svg xmlns="http://www.w3.org/2000/svg" width="28" height="28" viewBox="0 0 28 28" fill="none">
<path d="M14.0051 2.5H13.9993C7.6573 2.5 2.5 7.65874 2.5 14.0022C2.5 16.5183 3.31091 18.8504 4.68973 20.7439L3.25627 25.017L7.67743 23.6037C9.49622 24.8085 11.6658 25.5044 14.0051 25.5044C20.3471 25.5044 25.5044 20.3442 25.5044 14.0022C25.5044 7.66018 20.3471 2.5 14.0051 2.5Z" fill="#1573FF"/>
<path d="M20.6988 18.7474C20.4213 19.5309 19.32 20.1808 18.4415 20.3706C17.8405 20.4986 17.0555 20.6007 14.4129 19.5051C11.0326 18.1047 8.85586 14.6698 8.6862 14.447C8.52373 14.2241 7.32031 12.6282 7.32031 10.9776C7.32031 9.32705 8.15854 8.52333 8.49641 8.17827C8.7739 7.89503 9.23255 7.76562 9.67251 7.76562C9.81485 7.76562 9.94282 7.77281 10.0578 7.77857C10.3957 7.79294 10.5654 7.81307 10.7882 8.34649C11.0657 9.01505 11.7415 10.6656 11.822 10.8353C11.9039 11.0049 11.9859 11.235 11.8709 11.4578C11.763 11.6879 11.6681 11.79 11.4985 11.9855C11.3288 12.181 11.1678 12.3306 10.9981 12.5405C10.8429 12.7231 10.6675 12.9186 10.863 13.2565C11.0585 13.5872 11.7343 14.69 12.7292 15.5756C14.0132 16.7187 15.0541 17.0839 15.4265 17.2391C15.704 17.3542 16.0347 17.3268 16.2374 17.1112C16.4948 16.8337 16.8125 16.3736 17.136 15.9207C17.3661 15.5958 17.6565 15.5555 17.9613 15.6705C18.2719 15.7783 19.9152 16.5907 20.2531 16.7589C20.591 16.9286 20.8138 17.0091 20.8958 17.1514C20.9763 17.2938 20.9763 17.9623 20.6988 18.7474Z" fill="#F7F7F7"/>
</svg>