<svg xmlns="http://www.w3.org/2000/svg" width="26" height="20" viewBox="0 0 26 20" fill="none">
<rect width="26" height="20" rx="10" fill="#00CD52"/>
<path d="M7.74951 15.2499L8.71201 13.0333C7.97565 11.988 7.64607 10.7099 7.78512 9.43882C7.92417 8.16777 8.5223 6.99117 9.46726 6.12981C10.4122 5.26845 11.639 4.78155 12.9175 4.76048C14.1959 4.73941 15.4381 5.18563 16.411 6.01539C17.3838 6.84515 18.0203 8.00141 18.2012 9.26718C18.3821 10.5329 18.0948 11.8212 17.3932 12.8902C16.6917 13.9592 15.6242 14.7354 14.391 15.0732C13.1578 15.411 11.8437 15.2872 10.6953 14.7249L7.74951 15.2499Z" stroke="white" stroke-width="1.5" stroke-linecap="round" stroke-linejoin="round"/>
<path d="M11.2495 8.83325C11.2495 8.91061 11.2802 8.98479 11.3349 9.03949C11.3896 9.09419 11.4638 9.12492 11.5412 9.12492C11.6185 9.12492 11.6927 9.09419 11.7474 9.03949C11.8021 8.98479 11.8328 8.91061 11.8328 8.83325V8.24992M11.2495 8.83325V8.24992C11.2495 8.17256 11.2802 8.09838 11.3349 8.04368C11.3896 7.98898 11.4638 7.95825 11.5412 7.95825C11.6185 7.95825 11.6927 7.98898 11.7474 8.04368C11.8021 8.09838 11.8328 8.17256 11.8328 8.24992M11.2495 8.83325C11.2495 9.6068 11.5568 10.3487 12.1038 10.8956C12.6508 11.4426 13.3926 11.7499 14.1662 11.7499M11.2495 8.83325L11.8328 8.24992M14.1662 11.7499H14.7495M14.1662 11.7499C14.0888 11.7499 14.0146 11.7192 13.9599 11.6645C13.9052 11.6098 13.8745 11.5356 13.8745 11.4583C13.8745 11.3809 13.9052 11.3067 13.9599 11.252C14.0146 11.1973 14.0888 11.1666 14.1662 11.1666M14.7495 11.7499C14.8269 11.7499 14.9011 11.7192 14.9558 11.6645C15.0104 11.6098 15.0412 11.5356 15.0412 11.4583C15.0412 11.3809 15.0104 11.3067 14.9558 11.252C14.9011 11.1973 14.8269 11.1666 14.7495 11.1666H14.1662M14.7495 11.7499L14.1662 11.1666" stroke="white" stroke-width="1.5" stroke-linecap="round" stroke-linejoin="round"/>
</svg>