<svg xmlns="http://www.w3.org/2000/svg" width="16" height="16" viewBox="0 0 16 16" fill="none">
<path d="M8 5.33337V14M8 5.33337C7.75885 4.33964 7.34363 3.49009 6.80849 2.89549C6.27335 2.30089 5.64312 1.98884 5 2.00005C4.55797 2.00005 4.13405 2.17564 3.82149 2.4882C3.50893 2.80076 3.33333 3.22469 3.33333 3.66671C3.33333 4.10874 3.50893 4.53266 3.82149 4.84523C4.13405 5.15779 4.55797 5.33338 5 5.33338M8 5.33337C8.24115 4.33964 8.65637 3.49009 9.19151 2.89549C9.72665 2.30089 10.3569 1.98884 11 2.00005C11.442 2.00005 11.866 2.17564 12.1785 2.4882C12.4911 2.80076 12.6667 3.22469 12.6667 3.66671C12.6667 4.10874 12.4911 4.53266 12.1785 4.84523C11.866 5.15779 11.442 5.33338 11 5.33338M12.6667 8.00004V12.6667C12.6667 13.0203 12.5262 13.3595 12.2761 13.6095C12.0261 13.8596 11.687 14 11.3333 14H4.66667C4.31304 14 3.97391 13.8596 3.72386 13.6095C3.47381 13.3595 3.33333 13.0203 3.33333 12.6667V8.00004M2 6.00004C2 5.82323 2.07024 5.65366 2.19526 5.52864C2.32029 5.40361 2.48986 5.33337 2.66667 5.33337H13.3333C13.5101 5.33337 13.6797 5.40361 13.8047 5.52864C13.9298 5.65366 14 5.82323 14 6.00004V7.33337C14 7.51019 13.9298 7.67975 13.8047 7.80478C13.6797 7.9298 13.5101 8.00004 13.3333 8.00004H2.66667C2.48986 8.00004 2.32029 7.9298 2.19526 7.80478C2.07024 7.67975 2 7.51019 2 7.33337V6.00004Z" stroke="#FF1D61" stroke-width="1.5" stroke-linecap="round" stroke-linejoin="round"/>
</svg>