<svg xmlns="http://www.w3.org/2000/svg" width="20" height="20" viewBox="0 0 20 20" fill="none">
<path d="M18.3333 4.04161V13.9499C18.3333 14.7583 17.675 15.4999 16.8667 15.5999L16.6083 15.6333C15.2417 15.8166 13.3167 16.3833 11.7667 17.0333C11.225 17.2583 10.625 16.8499 10.625 16.2583V4.66661C10.625 4.35828 10.8 4.07494 11.075 3.92494C12.6 3.09994 14.9083 2.36661 16.475 2.23328H16.525C17.525 2.23328 18.3333 3.04161 18.3333 4.04161Z" fill="white"/>
<path d="M8.92511 3.92494C7.40011 3.09994 5.09178 2.36661 3.52511 2.23328H3.46678C2.46678 2.23328 1.65845 3.04161 1.65845 4.04161V13.9499C1.65845 14.7583 2.31678 15.4999 3.12511 15.5999L3.38345 15.6333C4.75011 15.8166 6.67511 16.3833 8.22511 17.0333C8.76678 17.2583 9.36678 16.8499 9.36678 16.2583V4.66661C9.36678 4.34994 9.20011 4.07494 8.92511 3.92494ZM4.16678 6.44994H6.04178C6.38345 6.44994 6.66678 6.73328 6.66678 7.07494C6.66678 7.42494 6.38345 7.69994 6.04178 7.69994H4.16678C3.82511 7.69994 3.54178 7.42494 3.54178 7.07494C3.54178 6.73328 3.82511 6.44994 4.16678 6.44994ZM6.66678 10.1999H4.16678C3.82511 10.1999 3.54178 9.92494 3.54178 9.57494C3.54178 9.23328 3.82511 8.94994 4.16678 8.94994H6.66678C7.00845 8.94994 7.29178 9.23328 7.29178 9.57494C7.29178 9.92494 7.00845 10.1999 6.66678 10.1999Z" fill="white"/>
</svg>