<svg width="21" height="21" viewBox="0 0 21 21" fill="none" xmlns="http://www.w3.org/2000/svg">
<path d="M13.1837 5.95703H5.31699C5.08366 5.95703 4.86699 5.96536 4.66699 5.9737C2.69199 6.09036 2.16699 6.81536 2.16699 9.06536V9.5487C2.16699 10.007 2.54199 10.382 3.00033 10.382H15.5003C15.9587 10.382 16.3337 10.007 16.3337 9.5487V9.06536C16.3337 6.58203 15.7003 5.95703 13.1837 5.95703Z" fill="#1573FF"/>
<path d="M3.00033 11.6328C2.54199 11.6328 2.16699 12.0078 2.16699 12.4661V14.8911C2.16699 17.3745 2.80033 17.9995 5.31699 17.9995H13.1837C15.6587 17.9995 16.3087 17.3995 16.3337 15.0245V12.4661C16.3337 12.0078 15.9587 11.6328 15.5003 11.6328H3.00033ZM6.30033 15.9661H4.87533C4.53366 15.9661 4.25033 15.6828 4.25033 15.3411C4.25033 14.9995 4.53366 14.7161 4.87533 14.7161H6.30866C6.65033 14.7161 6.93366 14.9995 6.93366 15.3411C6.93366 15.6828 6.65033 15.9661 6.30033 15.9661ZM10.9587 15.9661H8.09199C7.75033 15.9661 7.46699 15.6828 7.46699 15.3411C7.46699 14.9995 7.75033 14.7161 8.09199 14.7161H10.9587C11.3003 14.7161 11.5837 14.9995 11.5837 15.3411C11.5837 15.6828 11.3087 15.9661 10.9587 15.9661Z" fill="#1573FF"/>
<path d="M18.8333 11.6083V7.24167C18.8333 4.63333 17.3417 3.5 15.0917 3.5H7.65001C7.01668 3.5 6.45001 3.59167 5.95001 3.78333C5.55834 3.925 5.20834 4.13333 4.92501 4.40833C4.77501 4.55 4.89168 4.78333 5.10834 4.78333H14.1667C16.0417 4.78333 17.5583 6.3 17.5583 8.175V14.15C17.5583 14.3583 17.7833 14.475 17.9333 14.325C18.5083 13.7167 18.8333 12.825 18.8333 11.6083Z" fill="#1573FF"/>
</svg>
