<svg xmlns="http://www.w3.org/2000/svg" width="20" height="20" viewBox="0 0 20 20" fill="none">
<path fill-rule="evenodd" clip-rule="evenodd" d="M15.6747 5.99547C15.8858 6.21164 15.8858 6.56213 15.6747 6.77831L8.61768 14.0045C8.40657 14.2207 8.06429 14.2207 7.85317 14.0045L4.32468 10.3914C4.11356 10.1752 4.11356 9.82476 4.32468 9.60858C4.53579 9.3924 4.87807 9.3924 5.08918 9.60858L8.23543 12.8303L14.9102 5.99547C15.1213 5.77929 15.4636 5.77929 15.6747 5.99547Z" fill="#1573FF"/>
<path fill-rule="evenodd" clip-rule="evenodd" d="M15.9132 5.76257C16.2507 6.10825 16.2507 6.66552 15.9131 7.0112L8.85616 14.2374C8.51426 14.5875 7.95659 14.5875 7.61469 14.2374L4.0862 10.6243C3.74861 10.2786 3.74861 9.72137 4.0862 9.37569C4.42809 9.02559 4.98576 9.02559 5.32766 9.37569L8.23543 12.3532L14.6717 5.76257C15.0136 5.41248 15.5713 5.41248 15.9132 5.76257ZM8.23543 12.8303L5.08918 9.60858C4.87807 9.3924 4.53579 9.3924 4.32468 9.60858C4.11356 9.82476 4.11356 10.1752 4.32468 10.3914L7.85317 14.0045C8.06429 14.2207 8.40657 14.2207 8.61768 14.0045L15.6747 6.77831C15.8858 6.56213 15.8858 6.21164 15.6747 5.99547C15.4636 5.77929 15.1213 5.77929 14.9102 5.99547L8.23543 12.8303Z" fill="#1573FF"/>
</svg>