<svg xmlns="http://www.w3.org/2000/svg" width="33" height="33" viewBox="0 0 33 33" fill="none">
    <path d="M28.5932 7.47268C26.4466 7.25935 24.2999 7.09935 22.1399 6.97935V6.96602L21.8465 5.23268C21.6465 4.00602 21.3532 2.16602 18.2332 2.16602H14.7399C11.6332 2.16602 11.3399 3.92602 11.1266 5.21935L10.8466 6.92602C9.60655 7.00602 8.36655 7.08602 7.12655 7.20602L4.40655 7.47268C3.84655 7.52602 3.44655 8.01935 3.49988 8.56602C3.55322 9.11268 4.03322 9.51268 4.59322 9.45935L7.31322 9.19268C14.2999 8.49935 21.3399 8.76602 28.4066 9.47268C28.4466 9.47268 28.4732 9.47268 28.5132 9.47268C29.0199 9.47268 29.4599 9.08602 29.5132 8.56602C29.5532 8.01935 29.1532 7.52602 28.5932 7.47268Z" fill="#F4371C"></path>
    <path d="M26.1398 11.354C25.8198 11.0207 25.3798 10.834 24.9265 10.834H8.07316C7.61983 10.834 7.1665 11.0207 6.85983 11.354C6.55316 11.6873 6.37983 12.1407 6.4065 12.6073L7.23316 26.2873C7.37983 28.314 7.5665 30.8473 12.2198 30.8473H20.7798C25.4332 30.8473 25.6198 28.3273 25.7665 26.2873L26.5932 12.6207C26.6198 12.1407 26.4465 11.6873 26.1398 11.354ZM18.7132 24.1673H14.2732C13.7265 24.1673 13.2732 23.714 13.2732 23.1673C13.2732 22.6207 13.7265 22.1673 14.2732 22.1673H18.7132C19.2598 22.1673 19.7132 22.6207 19.7132 23.1673C19.7132 23.714 19.2598 24.1673 18.7132 24.1673ZM19.8332 18.834H13.1665C12.6198 18.834 12.1665 18.3807 12.1665 17.834C12.1665 17.2873 12.6198 16.834 13.1665 16.834H19.8332C20.3798 16.834 20.8332 17.2873 20.8332 17.834C20.8332 18.3807 20.3798 18.834 19.8332 18.834Z" fill="#F4371C"></path>
</svg>