<svg xmlns="http://www.w3.org/2000/svg" width="21" height="21" viewBox="0 0 21 21" fill="none">
<path d="M17.1667 10.4998V15.4998C17.1667 17.3415 15.675 18.8332 13.8334 18.8332H7.16671C5.32504 18.8332 3.83337 17.3415 3.83337 15.4998V10.4998C3.83337 10.0415 4.20837 9.6665 4.66671 9.6665H6.30837C6.76671 9.6665 7.14171 10.0415 7.14171 10.4998V13.1165C7.14171 13.7332 7.48337 14.2998 8.02504 14.5915C8.26671 14.7248 8.53337 14.7915 8.80837 14.7915C9.12504 14.7915 9.44171 14.6998 9.71671 14.5165L10.5084 13.9998L11.2417 14.4915C11.75 14.8332 12.4 14.8748 12.9417 14.5832C13.4917 14.2915 13.8334 13.7332 13.8334 13.1082V10.4998C13.8334 10.0415 14.2084 9.6665 14.6667 9.6665H16.3334C16.7917 9.6665 17.1667 10.0415 17.1667 10.4998Z" fill="#1573FF"/>
<path d="M18.4167 6.33317V7.1665C18.4167 8.08317 17.975 8.83317 16.75 8.83317H4.25004C2.97504 8.83317 2.58337 8.08317 2.58337 7.1665V6.33317C2.58337 5.4165 2.97504 4.6665 4.25004 4.6665H16.75C17.975 4.6665 18.4167 5.4165 18.4167 6.33317Z" fill="#1573FF"/>
<path d="M10.2 4.66686H5.59998C5.31665 4.35853 5.32498 3.88353 5.62498 3.58353L6.80832 2.4002C7.11665 2.09186 7.62498 2.09186 7.93332 2.4002L10.2 4.66686Z" fill="#1573FF"/>
<path d="M15.3916 4.66686H10.7916L13.0583 2.4002C13.3666 2.09186 13.875 2.09186 14.1833 2.4002L15.3666 3.58353C15.6666 3.88353 15.675 4.35853 15.3916 4.66686Z" fill="#1573FF"/>
<path d="M12.1416 9.6665C12.6 9.6665 12.975 10.0415 12.975 10.4998V13.1082C12.975 13.7748 12.2333 14.1748 11.6833 13.7998L10.9333 13.2998C10.6583 13.1165 10.3 13.1165 10.0166 13.2998L9.23328 13.8165C8.68328 14.1832 7.94995 13.7832 7.94995 13.1248V10.4998C7.94995 10.0415 8.32495 9.6665 8.78328 9.6665H12.1416Z" fill="#1573FF"/>
</svg>