<svg xmlns="http://www.w3.org/2000/svg" width="33" height="33" viewBox="0 0 33 33" fill="none">
<path fill-rule="evenodd" clip-rule="evenodd" d="M14.1098 4.85559C14.5278 4.12576 15.2419 3.16016 16.5005 3.16016C17.7591 3.16016 18.4733 4.12576 18.8913 4.85559C19.3291 5.62027 19.7679 6.71607 20.2817 7.99909L20.3717 8.22379C20.6909 9.02089 20.8946 9.52522 21.0888 9.89526C21.2688 10.2382 21.3892 10.3616 21.4876 10.4349C21.5859 10.508 21.7382 10.5878 22.1173 10.6616C22.5268 10.7412 23.0673 10.7913 23.9215 10.868L24.3243 10.9041C25.5889 11.0174 26.6829 11.1155 27.4897 11.3062C28.2827 11.4936 29.3343 11.8899 29.7155 13.0251C30.0964 14.1594 29.4983 15.1104 28.9799 15.7393C28.4523 16.3794 27.64 17.1195 26.7006 17.9753L25.9527 18.6568C25.4271 19.1358 25.0958 19.4392 24.86 19.6948C24.6407 19.9324 24.5699 20.0605 24.5331 20.1548C24.51 20.214 24.4908 20.2746 24.4756 20.3363C24.4514 20.4348 24.4355 20.5806 24.478 20.9016C24.5237 21.2468 24.6199 21.6861 24.7738 22.3809L24.8838 22.8776C25.143 24.0473 25.3609 25.0312 25.4461 25.7868C25.5229 26.4689 25.5694 27.4744 24.9008 28.22C24.5511 28.61 24.0964 28.891 23.5908 29.0292C22.6234 29.2936 21.7452 28.7994 21.1712 28.4246C20.5351 28.0092 19.755 27.3724 18.8277 26.6156L18.7657 26.565C18.1026 26.0238 17.676 25.6774 17.3264 25.4433C16.9966 25.2223 16.8349 25.1717 16.7287 25.1547C16.5775 25.1306 16.4235 25.1306 16.2724 25.1547C16.1662 25.1717 16.0045 25.2223 15.6746 25.4433C15.325 25.6774 14.8985 26.0238 14.2353 26.565L14.1733 26.6156C13.2461 27.3724 12.466 28.0092 11.8299 28.4246C11.2559 28.7994 10.3776 29.2936 9.41023 29.0292C8.90471 28.891 8.44994 28.61 8.10022 28.22C7.43169 27.4744 7.47813 26.4689 7.55498 25.7868C7.64012 25.0312 7.8581 24.0473 8.11727 22.8775L8.22729 22.3809C8.38119 21.6861 8.47734 21.2468 8.52304 20.9016C8.56554 20.5806 8.54971 20.4348 8.52548 20.3363C8.51029 20.2746 8.49109 20.214 8.46799 20.1548C8.43118 20.0605 8.36037 19.9324 8.14111 19.6948C7.90522 19.4392 7.57393 19.1358 7.04835 18.6568L6.30047 17.9754C5.3611 17.1195 4.54878 16.3794 4.02115 15.7393C3.50273 15.1104 2.90467 14.1594 3.28555 13.0251C3.66673 11.8899 4.71836 11.4936 5.51139 11.3062C6.31819 11.1155 7.41214 11.0174 8.67678 10.9041C8.71125 10.901 8.74586 10.8979 8.78058 10.8948L9.07961 10.868C9.93376 10.7913 10.4743 10.7412 10.8837 10.6616C11.2629 10.5878 11.4152 10.508 11.5134 10.4349C11.6118 10.3616 11.7323 10.2382 11.9123 9.89526C12.1065 9.52522 12.3102 9.02089 12.6294 8.22379L12.6804 8.09655C12.6934 8.06395 12.7064 8.03146 12.7194 7.99909C13.2331 6.71606 13.6719 5.62027 14.1098 4.85559Z" fill="#FEC33B"/>
</svg>