<svg xmlns="http://www.w3.org/2000/svg" width="32" height="32" viewBox="0 0 32 32" fill="none">
    <path d="M11.1866 24.6535V11.1068C11.1866 10.5735 11.3466 10.0535 11.64 9.61346L15.28 4.20013C15.8533 3.33346 17.28 2.72013 18.4933 3.17346C19.8 3.61346 20.6666 5.08013 20.3866 6.3868L19.6933 10.7468C19.64 11.1468 19.7466 11.5068 19.9733 11.7868C20.2 12.0401 20.5333 12.2001 20.8933 12.2001H26.3733C27.4266 12.2001 28.3333 12.6268 28.8666 13.3735C29.3733 14.0935 29.4666 15.0268 29.1333 15.9735L25.8533 25.9601C25.44 27.6135 23.64 28.9601 21.8533 28.9601H16.6533C15.76 28.9601 14.5066 28.6535 13.9333 28.0801L12.2266 26.7601C11.5733 26.2668 11.1866 25.4801 11.1866 24.6535Z" fill="#5BCE89"/>
    <path d="M6.94663 8.50684H5.57329C3.50663 8.50684 2.66663 9.30684 2.66663 11.2802V24.6935C2.66663 26.6668 3.50663 27.4668 5.57329 27.4668H6.94663C9.01329 27.4668 9.85329 26.6668 9.85329 24.6935V11.2802C9.85329 9.30684 9.01329 8.50684 6.94663 8.50684Z" fill="#5BCE89"/>
</svg>