<svg width="21" height="21" viewBox="0 0 21 21" fill="none" xmlns="http://www.w3.org/2000/svg">
<path d="M18.417 13.418C18.6503 13.418 18.8337 13.6013 18.8337 13.8346V14.668C18.8337 16.0513 17.717 17.168 16.3337 17.168C16.3337 15.793 15.2087 14.668 13.8337 14.668C12.4587 14.668 11.3337 15.793 11.3337 17.168H9.66699C9.66699 15.793 8.54199 14.668 7.16699 14.668C5.79199 14.668 4.66699 15.793 4.66699 17.168C3.28366 17.168 2.16699 16.0513 2.16699 14.668V13.0013C2.16699 12.543 2.54199 12.168 3.00033 12.168H10.917C12.067 12.168 13.0003 11.2346 13.0003 10.0846V5.5013C13.0003 5.04297 13.3753 4.66797 13.8337 4.66797H14.5337C15.1337 4.66797 15.6837 4.99297 15.9837 5.50964L16.517 6.44297C16.592 6.5763 16.492 6.7513 16.3337 6.7513C15.1837 6.7513 14.2503 7.68464 14.2503 8.83464V11.3346C14.2503 12.4846 15.1837 13.418 16.3337 13.418H18.417Z" fill="#1573FF"/>
<path d="M7.16667 18.8333C8.08714 18.8333 8.83333 18.0871 8.83333 17.1667C8.83333 16.2462 8.08714 15.5 7.16667 15.5C6.24619 15.5 5.5 16.2462 5.5 17.1667C5.5 18.0871 6.24619 18.8333 7.16667 18.8333Z" fill="#1573FF"/>
<path d="M13.8337 18.8333C14.7541 18.8333 15.5003 18.0871 15.5003 17.1667C15.5003 16.2462 14.7541 15.5 13.8337 15.5C12.9132 15.5 12.167 16.2462 12.167 17.1667C12.167 18.0871 12.9132 18.8333 13.8337 18.8333Z" fill="#1573FF"/>
<path d="M18.8333 10.9417V12.1667H16.3333C15.875 12.1667 15.5 11.7917 15.5 11.3333V8.83333C15.5 8.375 15.875 8 16.3333 8H17.4083L18.6167 10.1167C18.7583 10.3667 18.8333 10.65 18.8333 10.9417Z" fill="#1573FF"/>
<path d="M11.4003 2.16797H5.24199C3.54199 2.16797 2.16699 3.54297 2.16699 5.24297V10.5596C2.16699 11.018 2.54199 11.393 3.00033 11.393H10.6253C11.4753 11.393 12.167 10.7013 12.167 9.8513V2.93464C12.167 2.50964 11.8253 2.16797 11.4003 2.16797ZM8.89199 6.39297L7.15033 8.0763C7.02533 8.19297 6.86699 8.2513 6.71699 8.2513C6.55866 8.2513 6.40033 8.19297 6.28366 8.0763L5.44199 7.2763C5.19199 7.03464 5.18366 6.63464 5.42533 6.38464C5.65866 6.13464 6.05866 6.13464 6.30866 6.36797L6.71699 6.75964L8.02533 5.49297C8.27533 5.2513 8.66699 5.25964 8.90866 5.50964C9.15033 5.75964 9.14199 6.1513 8.89199 6.39297Z" fill="#1573FF"/>
</svg>
