<svg width="21" height="21" viewBox="0 0 21 21" fill="none" xmlns="http://www.w3.org/2000/svg">
<path d="M12.9998 19.4589C12.7748 19.4589 12.5665 19.3339 12.4582 19.1422C12.3498 18.9422 12.3498 18.7089 12.4665 18.5089L13.3415 17.0505C13.5165 16.7589 13.8998 16.6589 14.1998 16.8339C14.4998 17.0089 14.5915 17.3922 14.4165 17.6922L14.1915 18.0672C16.4915 17.5255 18.2165 15.4589 18.2165 12.9922C18.2165 12.6505 18.4998 12.3672 18.8415 12.3672C19.1832 12.3672 19.4665 12.6505 19.4665 12.9922C19.4582 16.5589 16.5582 19.4589 12.9998 19.4589Z" fill="#1573FF"/>
<path d="M2.16699 8.6263C1.82533 8.6263 1.54199 8.34297 1.54199 8.0013C1.54199 4.44297 4.44199 1.54297 8.00033 1.54297C8.22533 1.54297 8.43366 1.66797 8.54199 1.85964C8.65033 2.05964 8.65033 2.29297 8.53366 2.49297L7.65866 3.9513C7.48366 4.24297 7.10033 4.34297 6.80033 4.15964C6.50866 3.98464 6.40866 3.6013 6.59199 3.3013L6.81699 2.9263C4.50866 3.46797 2.79199 5.53464 2.79199 8.0013C2.79199 8.34297 2.50866 8.6263 2.16699 8.6263Z" fill="#1573FF"/>
<path d="M14.1668 7.34245L11.0335 5.65078C10.7001 5.47578 10.3085 5.47578 9.97513 5.65078L6.83346 7.34245C6.60846 7.46745 6.4668 7.70911 6.4668 7.97578C6.4668 8.25078 6.60846 8.49245 6.83346 8.61745L9.9668 10.3091C10.1335 10.4008 10.3168 10.4424 10.5001 10.4424C10.6835 10.4424 10.8668 10.4008 11.0335 10.3091L14.1668 8.61745C14.3918 8.49245 14.5335 8.25078 14.5335 7.97578C14.5335 7.70911 14.3918 7.46745 14.1668 7.34245Z" fill="#1573FF"/>
<path d="M9.45 10.8923L6.53333 9.43401C6.30833 9.32567 6.05 9.33401 5.83333 9.46734C5.625 9.60067 5.5 9.82567 5.5 10.0757V12.834C5.5 13.309 5.76667 13.7423 6.19167 13.9507L9.10833 15.409C9.20833 15.459 9.31667 15.484 9.43333 15.484C9.56667 15.484 9.69167 15.4507 9.80833 15.3757C10.025 15.2423 10.15 15.0173 10.15 14.7673V12.009C10.1417 11.534 9.88333 11.109 9.45 10.8923Z" fill="#1573FF"/>
<path d="M15.1579 9.46734C14.9413 9.33401 14.6829 9.32567 14.4579 9.43401L11.5413 10.8923C11.1163 11.109 10.8496 11.534 10.8496 12.009V14.7673C10.8496 15.0173 10.9746 15.2423 11.1913 15.3757C11.3079 15.4507 11.4329 15.484 11.5663 15.484C11.6746 15.484 11.7829 15.459 11.8913 15.409L14.8079 13.9507C15.2329 13.734 15.4996 13.309 15.4996 12.834V10.0757C15.4996 9.82567 15.3746 9.60067 15.1579 9.46734Z" fill="#1573FF"/>
</svg>
