<svg width="12" height="12" viewBox="0 0 12 12" fill="none" xmlns="http://www.w3.org/2000/svg">
<path fill-rule="evenodd" clip-rule="evenodd" d="M5.10356 1.63359C5.26029 1.3599 5.5281 0.997803 6.00008 0.997803C6.47206 0.997803 6.73987 1.3599 6.8966 1.63359C7.06081 1.92035 7.22535 2.33127 7.41801 2.8124L7.45175 2.89667C7.57146 3.19558 7.64786 3.3847 7.72068 3.52346C7.78817 3.65207 7.83333 3.69833 7.87024 3.72582C7.90709 3.75326 7.96419 3.78319 8.10638 3.81084C8.25991 3.8407 8.46262 3.8595 8.78292 3.88823L8.93399 3.90178C9.40823 3.94428 9.81845 3.98105 10.121 4.05256C10.4184 4.12286 10.8128 4.27147 10.9557 4.69715C11.0985 5.12252 10.8743 5.47913 10.6798 5.71497C10.482 5.955 10.1774 6.23254 9.82511 6.55349L9.54465 6.80906C9.34755 6.98866 9.22332 7.10245 9.13486 7.1983C9.05264 7.2874 9.02608 7.33542 9.01228 7.37079C9.00362 7.39299 8.99642 7.41573 8.99072 7.43887C8.98164 7.47579 8.9757 7.53046 8.99164 7.65083C9.00878 7.78028 9.04483 7.94505 9.10254 8.20557L9.1438 8.39183C9.24099 8.8305 9.32273 9.19945 9.35466 9.4828C9.38348 9.73857 9.40089 10.1156 9.15019 10.3952C9.01905 10.5415 8.84851 10.6469 8.65894 10.6987C8.29617 10.7978 7.96682 10.6125 7.75158 10.472C7.51303 10.3162 7.22048 10.0774 6.87277 9.79359L6.84952 9.77461C6.60084 9.57165 6.4409 9.44178 6.30978 9.35396C6.18609 9.27111 6.12546 9.25214 6.08563 9.24577C6.02895 9.23671 5.9712 9.23671 5.91452 9.24577C5.8747 9.25214 5.81406 9.27111 5.69037 9.35396C5.55926 9.44178 5.39932 9.57165 5.15063 9.77461L5.12737 9.7936C4.77966 10.0774 4.48712 10.3162 4.24857 10.472C4.03334 10.6125 3.70399 10.7978 3.34122 10.6987C3.15164 10.6469 2.98111 10.5415 2.84996 10.3952C2.59926 10.1156 2.61668 9.73857 2.6455 9.4828C2.67742 9.19945 2.75916 8.83049 2.85635 8.39182L2.89761 8.20557C2.95532 7.94505 2.99138 7.78028 3.00852 7.65083C3.02446 7.53046 3.01852 7.47579 3.00943 7.43887C3.00374 7.41572 2.99654 7.39298 2.98788 7.37079C2.97407 7.33542 2.94752 7.2874 2.86529 7.1983C2.77684 7.10245 2.6526 6.98866 2.45551 6.80906L2.17505 6.5535C1.82279 6.23255 1.51817 5.955 1.32031 5.71497C1.1259 5.47913 0.901629 5.12252 1.04446 4.69715C1.1874 4.27147 1.58176 4.12286 1.87915 4.05256C2.1817 3.98105 2.59193 3.94428 3.06617 3.90178C3.0791 3.90062 3.09207 3.89945 3.1051 3.89829L3.21723 3.88823C3.53754 3.8595 3.74024 3.8407 3.89378 3.81084C4.03596 3.78319 4.09306 3.75326 4.12992 3.72582C4.16682 3.69833 4.21199 3.65207 4.27947 3.52346C4.3523 3.3847 4.42869 3.19558 4.5484 2.89667L4.56751 2.84895C4.57241 2.83672 4.57729 2.82454 4.58215 2.8124C4.7748 2.33127 4.93935 1.92034 5.10356 1.63359Z" fill="#FEC33B"/>
</svg>
