<svg width="21" height="21" viewBox="0 0 21 21" fill="none" xmlns="http://www.w3.org/2000/svg">
<path d="M17.25 6.28464C17.25 6.73464 17.0083 7.14297 16.625 7.3513L15.175 8.13463L13.9417 8.79297L11.3833 10.1763C11.1083 10.3263 10.8083 10.4013 10.5 10.4013C10.1917 10.4013 9.89167 10.3263 9.61667 10.1763L4.375 7.3513C3.99167 7.14297 3.75 6.73464 3.75 6.28464C3.75 5.83464 3.99167 5.4263 4.375 5.21797L6.01667 4.33464L7.325 3.6263L9.61667 2.39297C10.1667 2.09297 10.8333 2.09297 11.3833 2.39297L16.625 5.21797C17.0083 5.4263 17.25 5.83464 17.25 6.28464Z" fill="#1573FF"/>
<path d="M8.74993 11.1565L3.87494 8.72316C3.49994 8.5315 3.0666 8.5565 2.70827 8.77316C2.34993 8.98983 2.1416 9.37316 2.1416 9.78983V14.3982C2.1416 15.1982 2.58327 15.9148 3.29993 16.2732L8.17493 18.7065C8.3416 18.7898 8.52494 18.8315 8.70827 18.8315C8.92494 18.8315 9.1416 18.7732 9.33327 18.6482C9.6916 18.4315 9.89993 18.0482 9.89993 17.6315V13.0232C9.90827 12.2315 9.4666 11.5148 8.74993 11.1565Z" fill="#1573FF"/>
<path d="M18.8585 9.79267V14.401C18.8585 15.1927 18.4168 15.9093 17.7001 16.2677L12.8251 18.7093C12.6585 18.7927 12.4751 18.8343 12.2918 18.8343C12.0751 18.8343 11.8585 18.776 11.6585 18.651C11.3085 18.4343 11.0918 18.051 11.0918 17.6343V13.0343C11.0918 12.2343 11.5335 11.5177 12.2501 11.1593L14.0418 10.2677L15.2918 9.64267L17.1251 8.726C17.5001 8.53433 17.9335 8.551 18.2918 8.776C18.6418 8.99267 18.8585 9.376 18.8585 9.79267Z" fill="#1573FF"/>
<path d="M15.1749 8.13333L13.9416 8.79167L6.0166 4.33333L7.32493 3.625L14.9749 7.94167C15.0583 7.99167 15.1249 8.05833 15.1749 8.13333Z" fill="#1573FF"/>
<path d="M15.292 9.64062V11.5323C15.292 11.874 15.0087 12.1573 14.667 12.1573C14.3253 12.1573 14.042 11.874 14.042 11.5323V10.2656L15.292 9.64062Z" fill="#1573FF"/>
</svg>
