<svg id="check" xmlns="http://www.w3.org/2000/svg" width="16" height="16" viewBox="0 0 16 16" fill="#ffffff">
    <path fill-rule="evenodd" clip-rule="evenodd" d="M12.5397 4.7965C12.7086 4.96944 12.7086 5.24984 12.5397 5.42278L6.89414 11.2038C6.72525 11.3767 6.45143 11.3767 6.28254 11.2038L3.45974 8.31327C3.29085 8.14033 3.29085 7.85994 3.45974 7.687C3.62863 7.51405 3.90246 7.51405 4.07135 7.687L6.58834 10.2643L11.9281 4.7965C12.097 4.62356 12.3708 4.62356 12.5397 4.7965Z"/>
    <path fill-rule="evenodd" clip-rule="evenodd" d="M12.7305 4.61019C13.0006 4.88673 13.0006 5.33255 12.7305 5.60909L7.08493 11.3901C6.81141 11.6702 6.36527 11.6702 6.09176 11.3901L3.26896 8.49958C2.99889 8.22304 2.99889 7.77723 3.26896 7.50068C3.54248 7.2206 3.98861 7.2206 4.26213 7.50068L6.58834 9.88268L11.7373 4.61019C12.0109 4.33011 12.457 4.33011 12.7305 4.61019ZM6.58834 10.2643L4.07135 7.687C3.90246 7.51405 3.62863 7.51405 3.45974 7.687C3.29085 7.85994 3.29085 8.14033 3.45974 8.31327L6.28254 11.2038C6.45143 11.3767 6.72525 11.3767 6.89414 11.2038L12.5397 5.42278C12.7086 5.24984 12.7086 4.96944 12.5397 4.7965C12.3708 4.62356 12.097 4.62356 11.9281 4.7965L6.58834 10.2643Z"/>
</svg>