<svg xmlns="http://www.w3.org/2000/svg" width="32" height="32" viewBox="0 0 32 32" fill="none">
<path d="M8.94297 24.9429C8.42227 25.4636 7.57805 25.4636 7.05735 24.9429C6.53666 24.4222 6.53666 23.578 7.05735 23.0573L14.1145 16.0001L7.05735 8.94289C6.53665 8.42219 6.53665 7.57797 7.05735 7.05727C7.57805 6.53657 8.42227 6.53657 8.94297 7.05727L16.0002 14.1145L23.0574 7.05727C23.5781 6.53657 24.4223 6.53657 24.943 7.05727C25.4637 7.57797 25.4637 8.42219 24.943 8.94289L17.8858 16.0001L24.943 23.0573C25.4637 23.578 25.4637 24.4222 24.943 24.9429C24.4223 25.4636 23.5781 25.4636 23.0574 24.9429L16.0002 17.8857L8.94297 24.9429Z" fill="white"/>
</svg>