<svg width="21" height="21" viewBox="0 0 21 21" fill="none" xmlns="http://www.w3.org/2000/svg">
<path d="M18.7662 14.4572C18.4912 16.6739 16.6746 18.4905 14.4579 18.7655C13.1162 18.9322 11.8662 18.5655 10.8912 17.8489C10.3329 17.4405 10.4662 16.5739 11.1329 16.3739C13.6412 15.6155 15.6162 13.6322 16.3829 11.1239C16.5829 10.4655 17.4496 10.3322 17.8579 10.8822C18.5662 11.8655 18.9329 13.1155 18.7662 14.4572Z" fill="#3083FF"/>
<path d="M8.82533 2.16797C5.15033 2.16797 2.16699 5.1513 2.16699 8.8263C2.16699 12.5013 5.15033 15.4846 8.82533 15.4846C12.5003 15.4846 15.4837 12.5013 15.4837 8.8263C15.4753 5.1513 12.5003 2.16797 8.82533 2.16797ZM8.04199 7.89297L10.0503 8.59297C10.7753 8.8513 11.1253 9.35963 11.1253 10.143C11.1253 11.043 10.4087 11.7846 9.53366 11.7846H9.45866V11.8263C9.45866 12.168 9.17533 12.4513 8.83366 12.4513C8.49199 12.4513 8.20866 12.168 8.20866 11.8263V11.7763C7.28366 11.7346 6.54199 10.9596 6.54199 9.99297C6.54199 9.6513 6.82533 9.36797 7.16699 9.36797C7.50866 9.36797 7.79199 9.6513 7.79199 9.99297C7.79199 10.293 8.00866 10.5346 8.27533 10.5346H9.52533C9.71699 10.5346 9.86699 10.3596 9.86699 10.143C9.86699 9.8513 9.81699 9.83464 9.62533 9.76797L7.61699 9.06797C6.90033 8.81797 6.54199 8.30964 6.54199 7.51797C6.54199 6.61797 7.25866 5.8763 8.13366 5.8763H8.20866V5.84297C8.20866 5.5013 8.49199 5.21797 8.83366 5.21797C9.17533 5.21797 9.45866 5.5013 9.45866 5.84297V5.89297C10.3837 5.93464 11.1253 6.70964 11.1253 7.6763C11.1253 8.01797 10.842 8.3013 10.5003 8.3013C10.1587 8.3013 9.87533 8.01797 9.87533 7.6763C9.87533 7.3763 9.65866 7.13464 9.39199 7.13464H8.14199C7.95033 7.13464 7.80033 7.30964 7.80033 7.5263C7.79199 7.80964 7.84199 7.8263 8.04199 7.89297Z" fill="#3083FF"/>
</svg>
