<svg width="28" height="27" viewBox="0 0 28 27" fill="none" xmlns="http://www.w3.org/2000/svg">
<path d="M27.0133 19.2265L18.48 3.8665C17.3333 1.79984 15.7466 0.666504 14 0.666504C12.2533 0.666504 10.6666 1.79984 9.51997 3.8665L0.986637 19.2265C-0.0933632 21.1865 -0.213363 23.0665 0.653303 24.5465C1.51997 26.0265 3.22664 26.8398 5.46664 26.8398H22.5333C24.7733 26.8398 26.48 26.0265 27.3466 24.5465C28.2133 23.0665 28.0933 21.1732 27.0133 19.2265ZM13 9.99984C13 9.45317 13.4533 8.99984 14 8.99984C14.5466 8.99984 15 9.45317 15 9.99984V16.6665C15 17.2132 14.5466 17.6665 14 17.6665C13.4533 17.6665 13 17.2132 13 16.6665V9.99984ZM14.9466 21.6132C14.88 21.6665 14.8133 21.7198 14.7466 21.7732C14.6666 21.8265 14.5866 21.8665 14.5066 21.8932C14.4266 21.9332 14.3466 21.9598 14.2533 21.9732C14.1733 21.9865 14.08 21.9998 14 21.9998C13.92 21.9998 13.8266 21.9865 13.7333 21.9732C13.6533 21.9598 13.5733 21.9332 13.4933 21.8932C13.4133 21.8665 13.3333 21.8265 13.2533 21.7732C13.1866 21.7198 13.12 21.6665 13.0533 21.6132C12.8133 21.3598 12.6666 21.0132 12.6666 20.6665C12.6666 20.3198 12.8133 19.9732 13.0533 19.7198C13.12 19.6665 13.1866 19.6132 13.2533 19.5598C13.3333 19.5065 13.4133 19.4665 13.4933 19.4398C13.5733 19.3998 13.6533 19.3732 13.7333 19.3598C13.9066 19.3198 14.0933 19.3198 14.2533 19.3598C14.3466 19.3732 14.4266 19.3998 14.5066 19.4398C14.5866 19.4665 14.6666 19.5065 14.7466 19.5598C14.8133 19.6132 14.88 19.6665 14.9466 19.7198C15.1866 19.9732 15.3333 20.3198 15.3333 20.6665C15.3333 21.0132 15.1866 21.3598 14.9466 21.6132Z" fill="#F4371C"/>
</svg>
