<svg xmlns="http://www.w3.org/2000/svg" width="32" height="32" viewBox="0 0 32 32" fill="none">
<path d="M20.8125 7.34654L20.8125 20.8932C20.8125 21.4265 20.6525 21.9465 20.3592 22.3865L16.7192 27.7999C16.1458 28.6665 14.7192 29.2799 13.5058 28.8265C12.1992 28.3865 11.3325 26.9199 11.6125 25.6132L12.3058 21.2532C12.3592 20.8532 12.2525 20.4932 12.0258 20.2132C11.7992 19.9599 11.4658 19.7999 11.1058 19.7999H5.62583C4.5725 19.7999 3.66583 19.3732 3.1325 18.6265C2.62583 17.9065 2.5325 16.9732 2.86583 16.0265L6.14583 6.03987C6.55917 4.38654 8.35917 3.03987 10.1458 3.03987H15.3458C16.2392 3.03987 17.4925 3.34654 18.0658 3.91987L19.7725 5.23987C20.4258 5.7332 20.8125 6.51987 20.8125 7.34654Z" fill="#F4371C"/>
<path d="M25.052 23.4934H26.4254C28.492 23.4934 29.332 22.6934 29.332 20.7201L29.332 7.30674C29.332 5.33341 28.492 4.53341 26.4254 4.53341H25.052C22.9854 4.53341 22.1454 5.33341 22.1454 7.30674V20.7201C22.1454 22.6934 22.9854 23.4934 25.052 23.4934Z" fill="#F4371C"/>
</svg>