<svg xmlns="http://www.w3.org/2000/svg" width="12" height="12" viewBox="0 0 12 12" fill="none">
<path d="M4.19482 9.24511V4.16511C4.19482 3.96511 4.25482 3.77011 4.36482 3.60511L5.72982 1.57511C5.94482 1.25011 6.47982 1.02011 6.93482 1.19011C7.42482 1.35511 7.74982 1.90511 7.64482 2.39511L7.38482 4.03011C7.36482 4.18011 7.40482 4.31511 7.48982 4.42011C7.57482 4.51511 7.69982 4.57511 7.83482 4.57511H9.88982C10.2848 4.57511 10.6248 4.73511 10.8248 5.01511C11.0148 5.28511 11.0498 5.63511 10.9248 5.99011L9.69482 9.73511C9.53982 10.3551 8.86482 10.8601 8.19482 10.8601H6.24482C5.90982 10.8601 5.43982 10.7451 5.22482 10.5301L4.58482 10.0351C4.33982 9.85011 4.19482 9.55511 4.19482 9.24511Z" fill="#1573FF"/>
<path d="M2.605 3.18994H2.09C1.315 3.18994 1 3.48994 1 4.22994V9.25994C1 9.99994 1.315 10.2999 2.09 10.2999H2.605C3.38 10.2999 3.695 9.99994 3.695 9.25994V4.22994C3.695 3.48994 3.38 3.18994 2.605 3.18994Z" fill="#1573FF"/>
</svg>