<svg xmlns="http://www.w3.org/2000/svg" width="20" height="20" viewBox="0 0 20 20" fill="none">
<path d="M13.3334 3.54163C13.3334 4.57496 12.4917 5.41663 11.4584 5.41663H8.54175C8.02508 5.41663 7.55841 5.20829 7.21675 4.86663C6.87508 4.52496 6.66675 4.05829 6.66675 3.54163C6.66675 2.50829 7.50841 1.66663 8.54175 1.66663H11.4584C11.9751 1.66663 12.4417 1.87496 12.7834 2.21663C13.1251 2.55829 13.3334 3.02496 13.3334 3.54163Z" fill="white"/>
<path d="M15.6916 4.19164C15.4999 4.0333 15.2833 3.9083 15.0499 3.81664C14.8083 3.72497 14.5666 3.91664 14.5166 4.16664C14.2333 5.59164 12.9749 6.66664 11.4583 6.66664H8.54158C7.70825 6.66664 6.92492 6.34164 6.33325 5.74997C5.89992 5.31664 5.59992 4.76664 5.48325 4.17497C5.43325 3.92497 5.18325 3.72497 4.94159 3.82497C3.97492 4.21664 3.33325 5.09997 3.33325 6.87497V15C3.33325 17.5 4.82492 18.3333 6.66659 18.3333H13.3333C15.1749 18.3333 16.6666 17.5 16.6666 15V6.87497C16.6666 5.51664 16.2916 4.6833 15.6916 4.19164ZM6.66659 10.2083H9.99992C10.3416 10.2083 10.6249 10.4916 10.6249 10.8333C10.6249 11.175 10.3416 11.4583 9.99992 11.4583H6.66659C6.32492 11.4583 6.04159 11.175 6.04159 10.8333C6.04159 10.4916 6.32492 10.2083 6.66659 10.2083ZM13.3333 14.7916H6.66659C6.32492 14.7916 6.04159 14.5083 6.04159 14.1666C6.04159 13.825 6.32492 13.5416 6.66659 13.5416H13.3333C13.6749 13.5416 13.9583 13.825 13.9583 14.1666C13.9583 14.5083 13.6749 14.7916 13.3333 14.7916Z" fill="white"/>
</svg>