<svg  xmlns="http://www.w3.org/2000/svg" xmlns:xlink="http://www.w3.org/1999/xlink" viewBox="0 0 300 300">
    <style>:root>svg{display:none}:root>svg:target{display:block}</style>
    <svg id="btn-prev" xmlns="http://www.w3.org/2000/svg" viewBox="0 0 17 16" fill="none">
        <path d="M10.5601 2.72L6.21339 7.06667C5.70006 7.58 5.70006 8.42 6.21339 8.93333L10.5601 13.28" stroke-width="1.2" stroke-miterlimit="10" stroke-linecap="round" stroke-linejoin="round"/>
    </svg>
    <svg id="btn-next" xmlns="http://www.w3.org/2000/svg" viewBox="0 0 16 16" fill="none">
       <path d="M5.93994 13.2802L10.2866 8.93355C10.7999 8.42021 10.7999 7.58022 10.2866 7.06688L5.93994 2.72021" stroke-width="1.2" stroke-miterlimit="10" stroke-linecap="round" stroke-linejoin="round"/>
    </svg>
    <svg id="btn-down" xmlns="http://www.w3.org/2000/svg" viewBox="0 0 15 16" fill="none">
       <path d="M2.5502 6.06873L6.6252 10.1437C7.10645 10.625 7.89395 10.625 8.3752 10.1437L12.4502 6.06873" stroke-width="1.5" stroke-miterlimit="10" stroke-linecap="round" stroke-linejoin="round"/>
    </svg>
    <svg id="close" xmlns="http://www.w3.org/2000/svg" viewBox="0 0 20 20">
       <path d="M2.94297 18.9429C2.42227 19.4636 1.57805 19.4636 1.05735 18.9429C0.536655 18.4222 0.536655 17.578 1.05735 17.0573L8.11454 10.0001L1.05735 2.94289C0.536654 2.42219 0.536654 1.57797 1.05735 1.05727C1.57805 0.536573 2.42227 0.536573 2.94297 1.05727L10.0002 8.11446L17.0574 1.05727C17.5781 0.536573 18.4223 0.536573 18.943 1.05727C19.4637 1.57797 19.4637 2.42219 18.943 2.94289L11.8858 10.0001L18.943 17.0573C19.4637 17.578 19.4637 18.4222 18.943 18.9429C18.4223 19.4636 17.5781 19.4636 17.0574 18.9429L10.0002 11.8857L2.94297 18.9429Z"/>
    </svg>
    <svg id="search" xmlns="http://www.w3.org/2000/svg" viewBox="0 0 15 16" fill="none">
        <path d="M7.1875 13.625C10.4667 13.625 13.125 10.9667 13.125 7.6875C13.125 4.40831 10.4667 1.75 7.1875 1.75C3.90831 1.75 1.25 4.40831 1.25 7.6875C1.25 10.9667 3.90831 13.625 7.1875 13.625Z" stroke-width="1.5" stroke-linecap="round" stroke-linejoin="round"/>
        <path d="M13.75 14.25L12.5 13" stroke-width="1.5" stroke-linecap="round" stroke-linejoin="round"/>
    </svg>
    <svg id="fav" xmlns="http://www.w3.org/2000/svg" viewBox="0 0 28 29">
        <g clip-path="url(#clip0_2_3084)">
        <path d="M14.7233 24.7784C14.3266 24.9184 13.6733 24.9184 13.2766 24.7784C9.89325 23.6234 2.33325 18.805 2.33325 10.6384C2.33325 7.03337 5.23825 4.1167 8.81992 4.1167C10.9433 4.1167 12.8216 5.14337 13.9999 6.73003C15.1783 5.14337 17.0683 4.1167 19.1799 4.1167C22.7616 4.1167 25.6666 7.03337 25.6666 10.6384C25.6666 18.805 18.1066 23.6234 14.7233 24.7784Z" stroke-width="1.5" stroke-linecap="round" stroke-linejoin="round"/>
        </g>
        <defs>
        <clipPath id="clip0_2_3084">
        <rect width="28" height="28" fill="white" transform="translate(0 0.5)"/>
        </clipPath>
        </defs>
    </svg>
    <svg id="cart-fav" viewBox="0 0 20 20" xmlns="http://www.w3.org/2000/svg">
          <path d="M10.517 17.3423C10.2337 17.4423 9.76699 17.4423 9.48366 17.3423C7.06699 16.5173 1.66699 13.0757 1.66699 7.24232C1.66699 4.66732 3.74199 2.58398 6.30033 2.58398C7.81699 2.58398 9.15866 3.31732 10.0003 4.45065C10.842 3.31732 12.192 2.58398 13.7003 2.58398C16.2587 2.58398 18.3337 4.66732 18.3337 7.24232C18.3337 13.0757 12.9337 16.5173 10.517 17.3423Z" stroke-width="1.5" stroke-linecap="round" stroke-linejoin="round" />       
    </svg>
    <svg id="cart" xmlns="http://www.w3.org/2000/svg" viewBox="0 0 28 29" fill="none">
        <path d="M8.75 9.44834V8.31668C8.75 5.69168 10.8617 3.11334 13.4867 2.86834C16.6133 2.56501 19.25 5.02668 19.25 8.09501V9.70501" stroke-width="1.5" stroke-miterlimit="10" stroke-linecap="round" stroke-linejoin="round"/>
        <path d="M10.5 26.1666H17.5C22.19 26.1666 23.03 24.2883 23.275 22.0016L24.15 15.0016C24.465 12.1549 23.6484 9.83325 18.6667 9.83325H9.33338C4.35171 9.83325 3.53504 12.1549 3.85004 15.0016L4.72504 22.0016C4.97004 24.2883 5.81004 26.1666 10.5 26.1666Z" stroke-width="1.5" stroke-miterlimit="10" stroke-linecap="round" stroke-linejoin="round"/>
        <path d="M18.0781 14.5001H18.0886" stroke-width="2" stroke-linecap="round" stroke-linejoin="round"/>
        <path d="M9.91018 14.5001H9.92066" stroke-width="2" stroke-linecap="round" stroke-linejoin="round"/>
    </svg>
    <svg id="sort" xmlns="http://www.w3.org/2000/svg" viewBox="0 0 18 18">
        <path d="M8.23508 4.6425L5.45258 1.86C5.40008 1.8075 5.33258 1.7625 5.25758 1.7325C5.25008 1.7325 5.24258 1.7325 5.23508 1.725C5.17508 1.7025 5.11508 1.6875 5.04758 1.6875C4.89758 1.6875 4.75508 1.7475 4.65008 1.8525L1.85258 4.6425C1.63508 4.86 1.63508 5.22 1.85258 5.4375C2.07008 5.655 2.43008 5.655 2.64758 5.4375L4.48508 3.6V15.75C4.48508 16.0575 4.74008 16.3125 5.04758 16.3125C5.35508 16.3125 5.61008 16.0575 5.61008 15.75V3.6075L7.44008 5.4375C7.55258 5.55 7.69508 5.6025 7.83758 5.6025C7.98008 5.6025 8.12258 5.55 8.23508 5.4375C8.45258 5.22 8.45258 4.8675 8.23508 4.6425Z"/>
        <path d="M16.1477 12.5625C15.9302 12.345 15.5702 12.345 15.3527 12.5625L13.5152 14.4V2.25C13.5152 1.9425 13.2602 1.6875 12.9527 1.6875C12.6452 1.6875 12.3902 1.9425 12.3902 2.25V14.3925L10.5602 12.5625C10.3427 12.345 9.98268 12.345 9.76518 12.5625C9.54768 12.78 9.54768 13.14 9.76518 13.3575L12.5477 16.14C12.6002 16.1925 12.6677 16.2375 12.7427 16.2675C12.7502 16.2675 12.7577 16.2675 12.7652 16.275C12.8252 16.2975 12.8927 16.3125 12.9602 16.3125C13.1102 16.3125 13.2527 16.2525 13.3577 16.1475L16.1477 13.3575C16.3652 13.1325 16.3652 12.78 16.1477 12.5625Z"/>
    </svg>
    <svg id="tippy" xmlns="http://www.w3.org/2000/svg" viewBox="0 0 33 34" fill="none">
       <path d="M16.5 12.875H16.5138M15.125 17H16.5V22.5H17.875M4.125 17C4.125 18.6251 4.44509 20.2343 5.06699 21.7357C5.68889 23.2371 6.60043 24.6013 7.74955 25.7504C8.89868 26.8996 10.2629 27.8111 11.7643 28.433C13.2657 29.0549 14.8749 29.375 16.5 29.375C18.1251 29.375 19.7343 29.0549 21.2357 28.433C22.7371 27.8111 24.1013 26.8996 25.2504 25.7504C26.3996 24.6013 27.3111 23.2371 27.933 21.7357C28.5549 20.2343 28.875 18.6251 28.875 17C28.875 13.7179 27.5712 10.5703 25.2504 8.24955C22.9297 5.92879 19.7821 4.625 16.5 4.625C13.2179 4.625 10.0703 5.92879 7.74955 8.24955C5.42879 10.5703 4.125 13.7179 4.125 17Z" stroke-width="2" stroke-linecap="round" stroke-linejoin="round"/>
    </svg>
    <svg id="drug" xmlns="http://www.w3.org/2000/svg" viewBox="0 0 21 21" fill="none">
        <path d="M12.9998 19.4579C12.7748 19.4579 12.5665 19.3329 12.4582 19.1412C12.3498 18.9412 12.3498 18.7079 12.4665 18.5079L13.3415 17.0495C13.5165 16.7579 13.8998 16.6579 14.1998 16.8329C14.4998 17.0079 14.5915 17.3912 14.4165 17.6912L14.1915 18.0662C16.4915 17.5245 18.2165 15.4579 18.2165 12.9912C18.2165 12.6495 18.4998 12.3662 18.8415 12.3662C19.1832 12.3662 19.4665 12.6495 19.4665 12.9912C19.4582 16.5579 16.5582 19.4579 12.9998 19.4579Z" fill="#1573FF"/>
        <path d="M2.1665 8.62533C1.82484 8.62533 1.5415 8.34199 1.5415 8.00033C1.5415 4.44199 4.4415 1.54199 7.99984 1.54199C8.22484 1.54199 8.43317 1.66699 8.5415 1.85866C8.64984 2.05866 8.64984 2.29199 8.53317 2.49199L7.65817 3.95033C7.48317 4.24199 7.09984 4.34199 6.79984 4.15866C6.50817 3.98366 6.40817 3.60033 6.5915 3.30033L6.8165 2.92533C4.50817 3.46699 2.7915 5.53366 2.7915 8.00033C2.7915 8.34199 2.50817 8.62533 2.1665 8.62533Z" fill="#1573FF"/>
        <path d="M14.1668 7.34147L11.0335 5.6498C10.7001 5.4748 10.3085 5.4748 9.97513 5.6498L6.83346 7.34147C6.60846 7.46647 6.4668 7.70814 6.4668 7.9748C6.4668 8.2498 6.60846 8.49147 6.83346 8.61647L9.9668 10.3081C10.1335 10.3998 10.3168 10.4415 10.5001 10.4415C10.6835 10.4415 10.8668 10.3998 11.0335 10.3081L14.1668 8.61647C14.3918 8.49147 14.5335 8.2498 14.5335 7.9748C14.5335 7.70814 14.3918 7.46647 14.1668 7.34147Z" fill="#1573FF"/>
        <path d="M9.45 10.8914L6.53333 9.43303C6.30833 9.3247 6.05 9.33303 5.83333 9.46636C5.625 9.5997 5.5 9.8247 5.5 10.0747V12.833C5.5 13.308 5.76667 13.7414 6.19167 13.9497L9.10833 15.408C9.20833 15.458 9.31667 15.483 9.43333 15.483C9.56667 15.483 9.69167 15.4497 9.80833 15.3747C10.025 15.2414 10.15 15.0164 10.15 14.7664V12.008C10.1417 11.533 9.88333 11.108 9.45 10.8914Z" fill="#1573FF"/>
        <path d="M15.1584 9.46636C14.9418 9.33303 14.6834 9.3247 14.4584 9.43303L11.5418 10.8914C11.1168 11.108 10.8501 11.533 10.8501 12.008V14.7664C10.8501 15.0164 10.9751 15.2414 11.1918 15.3747C11.3084 15.4497 11.4334 15.483 11.5668 15.483C11.6751 15.483 11.7834 15.458 11.8918 15.408L14.8084 13.9497C15.2334 13.733 15.5001 13.308 15.5001 12.833V10.0747C15.5001 9.8247 15.3751 9.5997 15.1584 9.46636Z" fill="#1573FF"/>
    </svg>
    <svg id="del" xmlns="http://www.w3.org/2000/svg" viewBox="0 0 20 20" fill="none">
        <path d="M17.5 4.98307C14.725 4.70807 11.9333 4.56641 9.15 4.56641C7.5 4.56641 5.85 4.64974 4.2 4.81641L2.5 4.98307" stroke-width="1.5" stroke-linecap="round" stroke-linejoin="round"/>
        <path d="M7.0835 4.14102L7.26683 3.04935C7.40016 2.25768 7.50016 1.66602 8.9085 1.66602H11.0918C12.5002 1.66602 12.6085 2.29102 12.7335 3.05768L12.9168 4.14102" stroke-width="1.5" stroke-linecap="round" stroke-linejoin="round"/>
        <path d="M15.7082 7.61719L15.1665 16.0089C15.0748 17.3172 14.9998 18.3339 12.6748 18.3339H7.32484C4.99984 18.3339 4.92484 17.3172 4.83317 16.0089L4.2915 7.61719" stroke-width="1.5" stroke-linecap="round" stroke-linejoin="round"/>
        <path d="M8.6084 13.75H11.3834" stroke-width="1.5" stroke-linecap="round" stroke-linejoin="round"/>
        <path d="M7.9165 10.416H12.0832" stroke-width="1.5" stroke-linecap="round" stroke-linejoin="round"/>
    </svg>
    <svg id="bonus" xmlns="http://www.w3.org/2000/svg" viewBox="0 0 16 16" fill="none">
        <path d="M8 5.33337V14M8 5.33337C7.75885 4.33964 7.34363 3.49009 6.80849 2.89549C6.27335 2.30089 5.64312 1.98884 5 2.00005C4.55797 2.00005 4.13405 2.17564 3.82149 2.4882C3.50893 2.80076 3.33333 3.22469 3.33333 3.66671C3.33333 4.10874 3.50893 4.53266 3.82149 4.84523C4.13405 5.15779 4.55797 5.33338 5 5.33338M8 5.33337C8.24115 4.33964 8.65637 3.49009 9.19151 2.89549C9.72665 2.30089 10.3569 1.98884 11 2.00005C11.442 2.00005 11.866 2.17564 12.1785 2.4882C12.4911 2.80076 12.6667 3.22469 12.6667 3.66671C12.6667 4.10874 12.4911 4.53266 12.1785 4.84523C11.866 5.15779 11.442 5.33338 11 5.33338M12.6667 8.00004V12.6667C12.6667 13.0203 12.5262 13.3595 12.2761 13.6095C12.0261 13.8596 11.687 14 11.3333 14H4.66667C4.31304 14 3.97391 13.8596 3.72386 13.6095C3.47381 13.3595 3.33333 13.0203 3.33333 12.6667V8.00004M2 6.00004C2 5.82323 2.07024 5.65366 2.19526 5.52864C2.32029 5.40361 2.48986 5.33337 2.66667 5.33337H13.3333C13.5101 5.33337 13.6797 5.40361 13.8047 5.52864C13.9298 5.65366 14 5.82323 14 6.00004V7.33337C14 7.51019 13.9298 7.67975 13.8047 7.80478C13.6797 7.9298 13.5101 8.00004 13.3333 8.00004H2.66667C2.48986 8.00004 2.32029 7.9298 2.19526 7.80478C2.07024 7.67975 2 7.51019 2 7.33337V6.00004Z" stroke-width="1.5" stroke-linecap="round" stroke-linejoin="round"/>
    </svg>
    <svg id="edit" xmlns="http://www.w3.org/2000/svg" viewBox="0 0 17 16" fill="none">
        <path d="M7.83301 1.33398H6.49967C3.16634 1.33398 1.83301 2.66732 1.83301 6.00065V10.0007C1.83301 13.334 3.16634 14.6673 6.49967 14.6673H10.4997C13.833 14.6673 15.1663 13.334 15.1663 10.0007V8.66732" stroke-width="1.5" stroke-linecap="round" stroke-linejoin="round"/>
        <path d="M11.1933 2.0135L5.93992 7.26684C5.73992 7.46684 5.53992 7.86017 5.49992 8.14684L5.21325 10.1535C5.10659 10.8802 5.61992 11.3868 6.34659 11.2868L8.35325 11.0002C8.63325 10.9602 9.02659 10.7602 9.23325 10.5602L14.4866 5.30684C15.3933 4.40017 15.8199 3.34684 14.4866 2.0135C13.1533 0.680168 12.0999 1.10684 11.1933 2.0135Z" stroke-width="1.5" stroke-miterlimit="10" stroke-linecap="round" stroke-linejoin="round"/>
        <path d="M10.4404 2.76758C10.8871 4.36091 12.1338 5.60758 13.7338 6.06091" stroke-width="1.5" stroke-miterlimit="10" stroke-linecap="round" stroke-linejoin="round"/>
    </svg>
    <svg id="phone" xmlns="http://www.w3.org/2000/svg" viewBox="0 0 21 21">
        <path d="M18.8082 15.775C18.8082 16.075 18.7415 16.3833 18.5998 16.6833C18.4582 16.9833 18.2748 17.2666 18.0332 17.5333C17.6248 17.9833 17.1748 18.3083 16.6665 18.5166C16.1665 18.725 15.6248 18.8333 15.0415 18.8333C14.1915 18.8333 13.2832 18.6333 12.3248 18.225C11.3665 17.8166 10.4082 17.2666 9.45817 16.575C8.49984 15.875 7.5915 15.1 6.72484 14.2416C5.8665 13.375 5.0915 12.4666 4.39984 11.5166C3.7165 10.5666 3.1665 9.61663 2.7665 8.67496C2.3665 7.72496 2.1665 6.81663 2.1665 5.94996C2.1665 5.38329 2.2665 4.84163 2.4665 4.34163C2.6665 3.83329 2.98317 3.36663 3.42484 2.94996C3.95817 2.42496 4.5415 2.16663 5.15817 2.16663C5.3915 2.16663 5.62484 2.21663 5.83317 2.31663C6.04984 2.41663 6.2415 2.56663 6.3915 2.78329L8.32484 5.50829C8.47484 5.71663 8.58317 5.90829 8.65817 6.09163C8.73317 6.26663 8.77484 6.44163 8.77484 6.59996C8.77484 6.79996 8.7165 6.99996 8.59984 7.19163C8.4915 7.38329 8.33317 7.58329 8.13317 7.78329L7.49984 8.44163C7.40817 8.53329 7.3665 8.64163 7.3665 8.77496C7.3665 8.84163 7.37484 8.89996 7.3915 8.96663C7.4165 9.03329 7.4415 9.08329 7.45817 9.13329C7.60817 9.40829 7.8665 9.76663 8.23317 10.2C8.60817 10.6333 9.00817 11.075 9.4415 11.5166C9.8915 11.9583 10.3248 12.3666 10.7665 12.7416C11.1998 13.1083 11.5582 13.3583 11.8415 13.5083C11.8832 13.525 11.9332 13.55 11.9915 13.575C12.0582 13.6 12.1248 13.6083 12.1998 13.6083C12.3415 13.6083 12.4498 13.5583 12.5415 13.4666L13.1748 12.8416C13.3832 12.6333 13.5832 12.475 13.7748 12.375C13.9665 12.2583 14.1582 12.2 14.3665 12.2C14.5248 12.2 14.6915 12.2333 14.8748 12.3083C15.0582 12.3833 15.2498 12.4916 15.4582 12.6333L18.2165 14.5916C18.4332 14.7416 18.5832 14.9166 18.6748 15.125C18.7582 15.3333 18.8082 15.5416 18.8082 15.775Z"/>
    </svg>
    <svg id="mail" xmlns="http://www.w3.org/2000/svg" viewBox="0 0 21 21">
        <path d="M14.667 17.5827H6.33366C3.83366 17.5827 2.16699 16.3327 2.16699 13.416V7.58268C2.16699 4.66602 3.83366 3.41602 6.33366 3.41602H14.667C17.167 3.41602 18.8337 4.66602 18.8337 7.58268V13.416C18.8337 16.3327 17.167 17.5827 14.667 17.5827Z"/>
        <path d="M14.6663 8L12.058 10.0833C11.1997 10.7667 9.79134 10.7667 8.933 10.0833L6.33301 8"/>
        <path d="M14.6663 8L12.058 10.0833C11.1997 10.7667 9.79134 10.7667 8.933 10.0833L6.33301 8" stroke="white" stroke-width="1.5" stroke-miterlimit="10" stroke-linecap="round" stroke-linejoin="round" fill="none"/>
    </svg>
    <svg id="site" xmlns="http://www.w3.org/2000/svg" viewBox="0 0 21 21">
        <path d="M9.67484 17.1833C13.8216 17.1833 17.1832 13.8217 17.1832 9.67499C17.1832 5.52825 13.8216 2.16666 9.67484 2.16666C5.5281 2.16666 2.1665 5.52825 2.1665 9.67499C2.1665 13.8217 5.5281 17.1833 9.67484 17.1833Z"/>
        <path d="M18.8252 16.2917C18.5502 15.7833 17.9669 15.5 17.1835 15.5C16.5919 15.5 16.0835 15.7417 15.7835 16.1583C15.4835 16.575 15.4169 17.1333 15.6002 17.6917C15.9585 18.775 16.5835 19.0167 16.9252 19.0583C16.9752 19.0667 17.0252 19.0667 17.0835 19.0667C17.4502 19.0667 18.0169 18.9083 18.5669 18.0833C19.0085 17.4417 19.0919 16.8 18.8252 16.2917Z"/>
    </svg>
    <svg id="post" xmlns="http://www.w3.org/2000/svg" viewBox="0 0 21 21">
        <path d="M15.5 2.16669H5.5C4.11667 2.16669 3 3.27502 3 4.64169V13.7334C3 15.1 4.11667 16.2084 5.5 16.2084H6.13333C6.8 16.2084 7.43333 16.4667 7.9 16.9334L9.325 18.3417C9.975 18.9834 11.0333 18.9834 11.6833 18.3417L13.1083 16.9334C13.575 16.4667 14.2167 16.2084 14.875 16.2084H15.5C16.8833 16.2084 18 15.1 18 13.7334V4.64169C18 3.27502 16.8833 2.16669 15.5 2.16669ZM10.5 5.29169C11.575 5.29169 12.4417 6.15835 12.4417 7.23335C12.4417 8.30835 11.575 9.17502 10.5 9.17502C9.425 9.17502 8.55833 8.30002 8.55833 7.23335C8.55833 6.15835 9.425 5.29169 10.5 5.29169ZM12.7333 13.05H8.26667C7.59167 13.05 7.2 12.3 7.575 11.7417C8.14167 10.9 9.24167 10.3334 10.5 10.3334C11.7583 10.3334 12.8583 10.9 13.425 11.7417C13.8 12.3 13.4 13.05 12.7333 13.05Z"/>
    </svg>
    <svg id="comp-name" xmlns="http://www.w3.org/2000/svg" viewBox="0 0 21 21">
        <path d="M18.0749 6.31664C17.3665 5.53331 16.1832 5.14164 14.4665 5.14164H14.2665V5.10831C14.2665 3.70831 14.2665 1.97498 11.1332 1.97498H9.86653C6.7332 1.97498 6.7332 3.71664 6.7332 5.10831V5.14998H6.5332C4.8082 5.14998 3.6332 5.54164 2.92487 6.32498C2.09987 7.24164 2.12487 8.47498 2.2082 9.31664L2.21654 9.37497L2.27732 10.0133C2.29159 10.163 2.37234 10.2984 2.49834 10.3806C2.70039 10.5125 3.01013 10.7112 3.19987 10.8166C3.31654 10.8916 3.44154 10.9583 3.56654 11.025C4.99154 11.8083 6.5582 12.3333 8.14987 12.5916C8.22487 13.375 8.56653 14.2916 10.3915 14.2916C12.2165 14.2916 12.5749 13.3833 12.6332 12.575C14.3332 12.3 15.9749 11.7083 17.4582 10.8416C17.5082 10.8166 17.5415 10.7916 17.5832 10.7666C17.9034 10.5857 18.2352 10.364 18.5398 10.1453C18.653 10.064 18.7253 9.93789 18.7407 9.79938L18.7499 9.71664L18.7915 9.32498C18.7999 9.27498 18.7999 9.23331 18.8082 9.17497C18.8749 8.33331 18.8582 7.18331 18.0749 6.31664ZM11.4082 12.025C11.4082 12.9083 11.4082 13.0416 10.3832 13.0416C9.3582 13.0416 9.3582 12.8833 9.3582 12.0333V10.9833H11.4082V12.025ZM7.92487 5.14164V5.10831C7.92487 3.69164 7.92487 3.16664 9.86653 3.16664H11.1332C13.0749 3.16664 13.0749 3.69998 13.0749 5.10831V5.14998H7.92487V5.14164Z"/>
        <path d="M17.7599 12.0091C18.114 11.8418 18.5212 12.1223 18.4858 12.5123L18.2002 15.6583C18.0252 17.325 17.3419 19.025 13.6752 19.025H7.32519C3.65853 19.025 2.9752 17.325 2.8002 15.6667L2.52948 12.6888C2.49444 12.3034 2.89276 12.0233 3.2458 12.182C4.205 12.6131 5.817 13.3064 6.85299 13.5854C7.01699 13.6296 7.15014 13.7476 7.22454 13.9003C7.73875 14.9556 8.82794 15.5167 10.3919 15.5167C11.9404 15.5167 13.0429 14.934 13.559 13.8755C13.6335 13.7227 13.7666 13.6048 13.9307 13.5604C15.0325 13.2619 16.7538 12.4846 17.7599 12.0091Z"/>
    </svg>
    <svg id="inn" xmlns="http://www.w3.org/2000/svg" viewBox="0 0 21 21">
        <path d="M15.5 3.83335H13.625V2.79169C13.625 2.45002 13.3417 2.16669 13 2.16669C12.6583 2.16669 12.375 2.45002 12.375 2.79169V18.2084C12.375 18.55 12.6583 18.8334 13 18.8334C13.3417 18.8334 13.625 18.55 13.625 18.2084V17.1667H15.5C17.3417 17.1667 18.8333 15.675 18.8333 13.8334V7.16669C18.8333 5.32502 17.3417 3.83335 15.5 3.83335Z"/>
        <path d="M5.91683 3.83331C4.07516 3.83331 2.5835 5.32498 2.5835 7.16665V13.8333C2.5835 15.675 4.07516 17.1666 5.91683 17.1666H10.0835C10.5418 17.1666 10.9168 16.7916 10.9168 16.3333V4.66665C10.9168 4.20831 10.5418 3.83331 10.0835 3.83331H5.91683ZM6.0585 10.8166C6.01683 10.9166 5.9585 11.0083 5.8835 11.0916C5.80016 11.1666 5.7085 11.225 5.6085 11.2666C5.5085 11.3083 5.40016 11.3333 5.29183 11.3333C5.1835 11.3333 5.07516 11.3083 4.97516 11.2666C4.87516 11.225 4.7835 11.1666 4.70016 11.0916C4.62516 11.0083 4.56683 10.9166 4.51683 10.8166C4.47516 10.7166 4.4585 10.6083 4.4585 10.5C4.4585 10.2833 4.55016 10.0666 4.70016 9.90831C4.74183 9.87498 4.7835 9.84165 4.82516 9.80831C4.87516 9.77498 4.92516 9.74998 4.97516 9.73331C5.02516 9.70831 5.07516 9.69165 5.12516 9.68331C5.4085 9.62498 5.69183 9.71665 5.8835 9.90831C6.0335 10.0666 6.12516 10.2833 6.12516 10.5C6.12516 10.6083 6.10016 10.7166 6.0585 10.8166ZM8.97516 10.8166C8.9335 10.9166 8.87516 11.0083 8.80016 11.0916C8.71683 11.1666 8.62516 11.225 8.52516 11.2666C8.42516 11.3083 8.31683 11.3333 8.2085 11.3333C8.10016 11.3333 7.99183 11.3083 7.89183 11.2666C7.79183 11.225 7.70016 11.1666 7.61683 11.0916C7.4585 10.9333 7.37516 10.725 7.37516 10.5C7.37516 10.3916 7.40016 10.2833 7.44183 10.1833C7.4835 10.075 7.54183 9.99165 7.61683 9.90831C7.92516 9.59998 8.4835 9.59998 8.80016 9.90831C8.95016 10.0666 9.04183 10.2833 9.04183 10.5C9.04183 10.6083 9.01683 10.7166 8.97516 10.8166Z"/>
    </svg>
    <svg id="address" xmlns="http://www.w3.org/2000/svg" viewBox="0 0 21 21">
        <path d="M17.4998 18.2083V18.7083H17.9998H18.8332C18.8633 18.7083 18.8946 18.7206 18.9202 18.7462C18.9459 18.7718 18.9582 18.8031 18.9582 18.8333C18.9582 18.8634 18.9459 18.8947 18.9202 18.9203C18.8946 18.946 18.8633 18.9583 18.8332 18.9583H2.1665C2.13636 18.9583 2.10508 18.946 2.07943 18.9203C2.05379 18.8947 2.0415 18.8634 2.0415 18.8333C2.0415 18.8031 2.05379 18.7718 2.07943 18.7462C2.10508 18.7206 2.13636 18.7083 2.1665 18.7083H2.95817H3.45596L3.45817 18.2105L3.49983 8.81048H3.49984V8.80827C3.49984 8.45353 3.66246 8.11642 3.94792 7.89504L3.94832 7.89473L9.78165 3.3614L9.78166 3.36142L9.78519 3.35862C10.2033 3.02759 10.7963 3.02759 11.2145 3.35862L11.2145 3.35864L11.2183 3.36159L12.3349 4.22826L12.4702 4.33327H12.6415H15.4832C15.6719 4.33327 15.8165 4.4826 15.8165 4.65827L15.8165 4.66235L15.8332 6.70402L15.8352 6.94551L16.0255 7.09409L17.0505 7.89409L17.0518 7.89504C17.3362 8.11559 17.4998 8.45216 17.4998 8.8166V18.2083ZM12.5832 18.7083H13.0832V18.2083V15.9166C13.0832 14.9488 12.301 14.1666 11.3332 14.1666H9.6665C8.6987 14.1666 7.9165 14.9488 7.9165 15.9166V18.2083V18.7083H8.4165H12.5832ZM5.4165 9.87494V11.1249C5.4165 11.8594 6.01536 12.4583 6.74984 12.4583H8.4165C9.15098 12.4583 9.74984 11.8594 9.74984 11.1249V9.87494C9.74984 9.14046 9.15098 8.5416 8.4165 8.5416H6.74984C6.01536 8.5416 5.4165 9.14046 5.4165 9.87494ZM14.2498 12.4583C14.9843 12.4583 15.5832 11.8594 15.5832 11.1249V9.87494C15.5832 9.14046 14.9843 8.5416 14.2498 8.5416H12.5832C11.8487 8.5416 11.2498 9.14046 11.2498 9.87494V11.1249C11.2498 11.8594 11.8487 12.4583 12.5832 12.4583H14.2498Z" stroke="#1573FF"/>
    </svg>
    <svg id="location" xmlns="http://www.w3.org/2000/svg" viewBox="0 0 21 21">
        <path d="M6.8748 17.925C6.8498 17.925 6.81647 17.9417 6.79147 17.9417C5.1748 17.1417 3.85814 15.8167 3.0498 14.2C3.0498 14.175 3.06647 14.1417 3.06647 14.1167C4.08314 14.4167 5.13314 14.6417 6.1748 14.8167C6.35814 15.8667 6.5748 16.9084 6.8748 17.925Z"/>
        <path d="M17.9502 14.2084C17.1252 15.8667 15.7502 17.2084 14.0752 18.0167C14.3919 16.9584 14.6585 15.8917 14.8335 14.8167C15.8835 14.6417 16.9169 14.4167 17.9335 14.1167C17.9252 14.15 17.9502 14.1834 17.9502 14.2084Z"/>
        <path d="M18.0169 6.92507C16.9669 6.6084 15.9085 6.35007 14.8335 6.16673C14.6585 5.09173 14.4002 4.02507 14.0752 2.9834C15.8002 3.8084 17.1919 5.20007 18.0169 6.92507Z"/>
        <path d="M6.87507 3.07505C6.57507 4.09172 6.3584 5.12505 6.1834 6.17505C5.1084 6.34172 4.04173 6.60838 2.9834 6.92505C3.79173 5.25005 5.1334 3.87505 6.79173 3.05005C6.81673 3.05005 6.85006 3.07505 6.87507 3.07505Z"/>
        <path d="M13.4085 5.99175C11.4751 5.77508 9.52513 5.77508 7.5918 5.99175C7.80013 4.85008 8.0668 3.70841 8.4418 2.60841C8.45846 2.54175 8.45013 2.49175 8.45846 2.42508C9.1168 2.26675 9.7918 2.16675 10.5001 2.16675C11.2001 2.16675 11.8835 2.26675 12.5335 2.42508C12.5418 2.49175 12.5418 2.54175 12.5585 2.60841C12.9335 3.71675 13.2001 4.85008 13.4085 5.99175Z"/>
        <path d="M5.9915 13.4082C4.8415 13.1999 3.70817 12.9332 2.60817 12.5582C2.5415 12.5416 2.4915 12.5499 2.42484 12.5416C2.2665 11.8832 2.1665 11.2082 2.1665 10.4999C2.1665 9.79989 2.2665 9.11655 2.42484 8.46655C2.4915 8.45822 2.5415 8.45822 2.60817 8.44155C3.7165 8.07489 4.8415 7.79989 5.9915 7.59155C5.78317 9.52489 5.78317 11.4749 5.9915 13.4082Z"/>
        <path d="M18.8333 10.4999C18.8333 11.2082 18.7333 11.8832 18.575 12.5416C18.5083 12.5499 18.4583 12.5416 18.3916 12.5582C17.2833 12.9249 16.15 13.1999 15.0083 13.4082C15.225 11.4749 15.225 9.52489 15.0083 7.59155C16.15 7.79989 17.2916 8.06655 18.3916 8.44155C18.4583 8.45822 18.5083 8.46655 18.575 8.46655C18.7333 9.12489 18.8333 9.79989 18.8333 10.4999Z"/>
        <path d="M13.4085 15.0083C13.2001 16.1583 12.9335 17.2916 12.5585 18.3916C12.5418 18.4583 12.5418 18.5083 12.5335 18.575C11.8835 18.7333 11.2001 18.8333 10.5001 18.8333C9.7918 18.8333 9.1168 18.7333 8.45846 18.575C8.45013 18.5083 8.45846 18.4583 8.4418 18.3916C8.07513 17.2833 7.80013 16.1583 7.5918 15.0083C8.55846 15.1166 9.52513 15.1916 10.5001 15.1916C11.4751 15.1916 12.4501 15.1166 13.4085 15.0083Z"/>
        <path d="M13.6359 13.6362C11.5517 13.8992 9.44797 13.8992 7.36373 13.6362C7.10076 11.5519 7.10076 9.44822 7.36373 7.36397C9.44797 7.10101 11.5517 7.10101 13.6359 7.36397C13.8989 9.44822 13.8989 11.5519 13.6359 13.6362Z"/>
    </svg>
    <svg id="education" xmlns="http://www.w3.org/2000/svg" viewBox="0 0 21 21">
        <path d="M14.5248 13.5332C15.0831 13.1666 15.8164 13.5666 15.8164 14.2332V15.3082C15.8164 16.3666 14.9914 17.4999 13.9998 17.8332L11.3414 18.7166C10.8748 18.8749 10.1164 18.8749 9.65811 18.7166L6.99977 17.8332C5.99977 17.4999 5.18311 16.3666 5.18311 15.3082V14.2249C5.18311 13.5666 5.91644 13.1666 6.46644 13.5249L8.18311 14.6416C8.84144 15.0832 9.67477 15.2999 10.5081 15.2999C11.3414 15.2999 12.1748 15.0832 12.8331 14.6416L14.5248 13.5332Z"/>
        <path d="M17.1498 5.8833L12.1581 2.6083C11.2581 2.01663 9.77477 2.01663 8.87477 2.6083L3.85811 5.8833C2.24977 6.92497 2.24977 9.2833 3.85811 10.3333L5.19144 11.2L8.87477 13.6C9.77477 14.1916 11.2581 14.1916 12.1581 13.6L15.8164 11.2L16.9581 10.45V13C16.9581 13.3416 17.2414 13.625 17.5831 13.625C17.9248 13.625 18.2081 13.3416 18.2081 13V8.89997C18.5414 7.82497 18.1998 6.57497 17.1498 5.8833Z"/>
    </svg>
    <svg id="star-5" xmlns="http://www.w3.org/2000/svg" viewBox="0 0 109 21">
        <path fill-rule="evenodd" clip-rule="evenodd" d="M8.9312 2.85868C9.20548 2.37972 9.67414 1.74605 10.5001 1.74605C11.3261 1.74605 11.7947 2.37972 12.069 2.85868C12.3564 3.3605 12.6443 4.07961 12.9815 4.9216L13.0405 5.06906C13.25 5.59216 13.3837 5.92312 13.5112 6.16596C13.6293 6.39101 13.7083 6.47198 13.7729 6.52007C13.8374 6.5681 13.9373 6.62047 14.1861 6.66886C14.4548 6.72112 14.8096 6.75401 15.3701 6.80429L15.6345 6.828C16.4644 6.90239 17.1823 6.96673 17.7117 7.09188C18.2322 7.21489 18.9223 7.47496 19.1724 8.21991C19.4224 8.9643 19.0299 9.58837 18.6897 10.0011C18.3435 10.4211 17.8104 10.9068 17.1939 11.4685L16.7031 11.9158C16.3582 12.23 16.1408 12.4292 15.986 12.5969C15.8421 12.7528 15.7956 12.8369 15.7715 12.8988C15.7563 12.9376 15.7437 12.9774 15.7337 13.0179C15.7178 13.0825 15.7074 13.1782 15.7353 13.3888C15.7653 13.6154 15.8284 13.9037 15.9294 14.3596L16.0016 14.6856C16.1717 15.4533 16.3148 16.0989 16.3706 16.5948C16.4211 17.0424 16.4515 17.7023 16.0128 18.1915C15.7833 18.4475 15.4849 18.6319 15.1531 18.7226C14.5183 18.8961 13.9419 18.5718 13.5652 18.3258C13.1478 18.0532 12.6358 17.6353 12.0273 17.1387L11.9866 17.1055C11.5514 16.7503 11.2715 16.523 11.0421 16.3693C10.8256 16.2243 10.7195 16.1911 10.6498 16.18C10.5506 16.1641 10.4496 16.1641 10.3504 16.18C10.2807 16.1911 10.1746 16.2243 9.95812 16.3693C9.72867 16.523 9.44878 16.7503 9.01358 17.1055L8.97287 17.1387C8.36438 17.6353 7.85243 18.0532 7.43498 18.3258C7.05832 18.5718 6.48195 18.8961 5.8471 18.7226C5.51535 18.6319 5.21691 18.4475 4.98741 18.1915C4.54868 17.7023 4.57916 17.0424 4.62959 16.5948C4.68546 16.0989 4.82851 15.4533 4.99859 14.6856L5.07079 14.3596C5.17179 13.9037 5.23489 13.6154 5.26488 13.3888C5.29277 13.1782 5.28238 13.0825 5.26648 13.0179C5.25651 12.9774 5.24391 12.9376 5.22876 12.8988C5.2046 12.8369 5.15813 12.7528 5.01424 12.5969C4.85944 12.4292 4.64202 12.23 4.29711 11.9158L3.80632 11.4685C3.18986 10.9069 2.65677 10.4212 2.31051 10.0011C1.9703 9.58837 1.57782 8.9643 1.82778 8.21991C2.07793 7.47496 2.76806 7.21489 3.28848 7.09188C3.81795 6.96673 4.53585 6.90239 5.36577 6.828C5.38839 6.82597 5.4111 6.82394 5.43389 6.82189L5.63013 6.80429C6.19066 6.75401 6.5454 6.72112 6.81408 6.66886C7.06291 6.62047 7.16283 6.5681 7.22733 6.52007C7.29191 6.47198 7.37095 6.39101 7.48905 6.16596C7.61649 5.92312 7.75019 5.59215 7.95968 5.06906L7.99312 4.98556C8.00169 4.96416 8.01023 4.94284 8.01873 4.9216C8.35588 4.07961 8.64383 3.3605 8.9312 2.85868Z"/>
        <path fill-rule="evenodd" clip-rule="evenodd" d="M30.9312 2.85868C31.2055 2.37972 31.6741 1.74605 32.5001 1.74605C33.3261 1.74605 33.7947 2.37972 34.069 2.85868C34.3564 3.3605 34.6443 4.07961 34.9815 4.9216L35.0405 5.06906C35.25 5.59216 35.3837 5.92312 35.5112 6.16596C35.6293 6.39101 35.7083 6.47198 35.7729 6.52007C35.8374 6.5681 35.9373 6.62047 36.1861 6.66886C36.4548 6.72112 36.8096 6.75401 37.3701 6.80429L37.6345 6.828C38.4644 6.90239 39.1823 6.96673 39.7117 7.09188C40.2322 7.21489 40.9223 7.47496 41.1724 8.21991C41.4224 8.9643 41.0299 9.58837 40.6897 10.0011C40.3435 10.4211 39.8104 10.9068 39.1939 11.4685L38.7031 11.9158C38.3582 12.23 38.1408 12.4292 37.986 12.5969C37.8421 12.7528 37.7956 12.8369 37.7715 12.8988C37.7563 12.9376 37.7437 12.9774 37.7337 13.0179C37.7178 13.0825 37.7074 13.1782 37.7353 13.3888C37.7653 13.6154 37.8284 13.9037 37.9294 14.3596L38.0016 14.6856C38.1717 15.4533 38.3148 16.0989 38.3706 16.5948C38.4211 17.0424 38.4515 17.7023 38.0128 18.1915C37.7833 18.4475 37.4849 18.6319 37.1531 18.7226C36.5183 18.8961 35.9419 18.5718 35.5652 18.3258C35.1478 18.0532 34.6358 17.6353 34.0273 17.1387L33.9866 17.1055C33.5514 16.7503 33.2715 16.523 33.0421 16.3693C32.8256 16.2243 32.7195 16.1911 32.6498 16.18C32.5506 16.1641 32.4496 16.1641 32.3504 16.18C32.2807 16.1911 32.1746 16.2243 31.9581 16.3693C31.7287 16.523 31.4488 16.7503 31.0136 17.1055L30.9729 17.1387C30.3644 17.6353 29.8524 18.0532 29.435 18.3258C29.0583 18.5718 28.482 18.8961 27.8471 18.7226C27.5154 18.6319 27.2169 18.4475 26.9874 18.1915C26.5487 17.7023 26.5792 17.0424 26.6296 16.5948C26.6855 16.0989 26.8285 15.4533 26.9986 14.6856L27.0708 14.3596C27.1718 13.9037 27.2349 13.6154 27.2649 13.3888C27.2928 13.1782 27.2824 13.0825 27.2665 13.0179C27.2565 12.9774 27.2439 12.9376 27.2288 12.8988C27.2046 12.8369 27.1581 12.7528 27.0142 12.5969C26.8594 12.4292 26.642 12.23 26.2971 11.9158L25.8063 11.4685C25.1899 10.9069 24.6568 10.4212 24.3105 10.0011C23.9703 9.58837 23.5778 8.9643 23.8278 8.21991C24.0779 7.47496 24.7681 7.21489 25.2885 7.09188C25.8179 6.96673 26.5358 6.90239 27.3658 6.828C27.3884 6.82597 27.4111 6.82394 27.4339 6.82189L27.6301 6.80429C28.1907 6.75401 28.5454 6.72112 28.8141 6.66886C29.0629 6.62047 29.1628 6.5681 29.2273 6.52007C29.2919 6.47198 29.3709 6.39101 29.4891 6.16596C29.6165 5.92312 29.7502 5.59215 29.9597 5.06906L29.9931 4.98556C30.0017 4.96416 30.0102 4.94284 30.0187 4.9216C30.3559 4.07961 30.6438 3.3605 30.9312 2.85868Z"/>
        <path fill-rule="evenodd" clip-rule="evenodd" d="M52.9312 2.85868C53.2055 2.37972 53.6741 1.74605 54.5001 1.74605C55.3261 1.74605 55.7947 2.37972 56.069 2.85868C56.3564 3.3605 56.6443 4.07961 56.9815 4.9216L57.0405 5.06906C57.25 5.59216 57.3837 5.92312 57.5112 6.16596C57.6293 6.39101 57.7083 6.47198 57.7729 6.52007C57.8374 6.5681 57.9373 6.62047 58.1861 6.66886C58.4548 6.72112 58.8096 6.75401 59.3701 6.80429L59.6345 6.828C60.4644 6.90239 61.1823 6.96673 61.7117 7.09188C62.2322 7.21489 62.9223 7.47496 63.1724 8.21991C63.4224 8.9643 63.0299 9.58837 62.6897 10.0011C62.3435 10.4211 61.8104 10.9068 61.1939 11.4685L60.7031 11.9158C60.3582 12.23 60.1408 12.4292 59.986 12.5969C59.8421 12.7528 59.7956 12.8369 59.7715 12.8988C59.7563 12.9376 59.7437 12.9774 59.7337 13.0179C59.7178 13.0825 59.7074 13.1782 59.7353 13.3888C59.7653 13.6154 59.8284 13.9037 59.9294 14.3596L60.0016 14.6856C60.1717 15.4533 60.3148 16.0989 60.3706 16.5948C60.4211 17.0424 60.4515 17.7023 60.0128 18.1915C59.7833 18.4475 59.4849 18.6319 59.1531 18.7226C58.5183 18.8961 57.9419 18.5718 57.5652 18.3258C57.1478 18.0532 56.6358 17.6353 56.0273 17.1387L55.9866 17.1055C55.5514 16.7503 55.2715 16.523 55.0421 16.3693C54.8256 16.2243 54.7195 16.1911 54.6498 16.18C54.5506 16.1641 54.4496 16.1641 54.3504 16.18C54.2807 16.1911 54.1746 16.2243 53.9581 16.3693C53.7287 16.523 53.4488 16.7503 53.0136 17.1055L52.9729 17.1387C52.3644 17.6353 51.8524 18.0532 51.435 18.3258C51.0583 18.5718 50.482 18.8961 49.8471 18.7226C49.5154 18.6319 49.2169 18.4475 48.9874 18.1915C48.5487 17.7023 48.5792 17.0424 48.6296 16.5948C48.6855 16.0989 48.8285 15.4533 48.9986 14.6856L49.0708 14.3596C49.1718 13.9037 49.2349 13.6154 49.2649 13.3888C49.2928 13.1782 49.2824 13.0825 49.2665 13.0179C49.2565 12.9774 49.2439 12.9376 49.2288 12.8988C49.2046 12.8369 49.1581 12.7528 49.0142 12.5969C48.8594 12.4292 48.642 12.23 48.2971 11.9158L47.8063 11.4685C47.1899 10.9069 46.6568 10.4212 46.3105 10.0011C45.9703 9.58837 45.5778 8.9643 45.8278 8.21991C46.0779 7.47496 46.7681 7.21489 47.2885 7.09188C47.8179 6.96673 48.5358 6.90239 49.3658 6.828C49.3884 6.82597 49.4111 6.82394 49.4339 6.82189L49.6301 6.80429C50.1907 6.75401 50.5454 6.72112 50.8141 6.66886C51.0629 6.62047 51.1628 6.5681 51.2273 6.52007C51.2919 6.47198 51.3709 6.39101 51.4891 6.16596C51.6165 5.92312 51.7502 5.59215 51.9597 5.06906L51.9931 4.98556C52.0017 4.96416 52.0102 4.94284 52.0187 4.9216C52.3559 4.07961 52.6438 3.3605 52.9312 2.85868Z"/>
        <path fill-rule="evenodd" clip-rule="evenodd" d="M74.9312 2.85868C75.2055 2.37972 75.6741 1.74605 76.5001 1.74605C77.3261 1.74605 77.7947 2.37972 78.069 2.85868C78.3564 3.3605 78.6443 4.07961 78.9815 4.9216L79.0405 5.06906C79.25 5.59216 79.3837 5.92312 79.5112 6.16596C79.6293 6.39101 79.7083 6.47198 79.7729 6.52007C79.8374 6.5681 79.9373 6.62047 80.1861 6.66886C80.4548 6.72112 80.8096 6.75401 81.3701 6.80429L81.6345 6.828C82.4644 6.90239 83.1823 6.96673 83.7117 7.09188C84.2322 7.21489 84.9223 7.47496 85.1724 8.21991C85.4224 8.9643 85.0299 9.58837 84.6897 10.0011C84.3435 10.4211 83.8104 10.9068 83.1939 11.4685L82.7031 11.9158C82.3582 12.23 82.1408 12.4292 81.986 12.5969C81.8421 12.7528 81.7956 12.8369 81.7715 12.8988C81.7563 12.9376 81.7437 12.9774 81.7337 13.0179C81.7178 13.0825 81.7074 13.1782 81.7353 13.3888C81.7653 13.6154 81.8284 13.9037 81.9294 14.3596L82.0016 14.6856C82.1717 15.4533 82.3148 16.0989 82.3706 16.5948C82.4211 17.0424 82.4515 17.7023 82.0128 18.1915C81.7833 18.4475 81.4849 18.6319 81.1531 18.7226C80.5183 18.8961 79.9419 18.5718 79.5652 18.3258C79.1478 18.0532 78.6358 17.6353 78.0273 17.1387L77.9866 17.1055C77.5514 16.7503 77.2715 16.523 77.0421 16.3693C76.8256 16.2243 76.7195 16.1911 76.6498 16.18C76.5506 16.1641 76.4496 16.1641 76.3504 16.18C76.2807 16.1911 76.1746 16.2243 75.9581 16.3693C75.7287 16.523 75.4488 16.7503 75.0136 17.1055L74.9729 17.1387C74.3644 17.6353 73.8524 18.0532 73.435 18.3258C73.0583 18.5718 72.482 18.8961 71.8471 18.7226C71.5154 18.6319 71.2169 18.4475 70.9874 18.1915C70.5487 17.7023 70.5792 17.0424 70.6296 16.5948C70.6855 16.0989 70.8285 15.4533 70.9986 14.6856L71.0708 14.3596C71.1718 13.9037 71.2349 13.6154 71.2649 13.3888C71.2928 13.1782 71.2824 13.0825 71.2665 13.0179C71.2565 12.9774 71.2439 12.9376 71.2288 12.8988C71.2046 12.8369 71.1581 12.7528 71.0142 12.5969C70.8594 12.4292 70.642 12.23 70.2971 11.9158L69.8063 11.4685C69.1899 10.9069 68.6568 10.4212 68.3105 10.0011C67.9703 9.58837 67.5778 8.9643 67.8278 8.21991C68.0779 7.47496 68.7681 7.21489 69.2885 7.09188C69.8179 6.96673 70.5358 6.90239 71.3658 6.828C71.3884 6.82597 71.4111 6.82394 71.4339 6.82189L71.6301 6.80429C72.1907 6.75401 72.5454 6.72112 72.8141 6.66886C73.0629 6.62047 73.1628 6.5681 73.2273 6.52007C73.2919 6.47198 73.3709 6.39101 73.4891 6.16596C73.6165 5.92312 73.7502 5.59215 73.9597 5.06906L73.9931 4.98556C74.0017 4.96416 74.0102 4.94284 74.0187 4.9216C74.3559 4.07961 74.6438 3.3605 74.9312 2.85868Z"/>
        <path fill-rule="evenodd" clip-rule="evenodd" d="M96.9312 2.85868C97.2055 2.37972 97.6741 1.74605 98.5001 1.74605C99.3261 1.74605 99.7947 2.37972 100.069 2.85868C100.356 3.3605 100.644 4.07961 100.981 4.9216L101.041 5.06906C101.25 5.59216 101.384 5.92312 101.511 6.16596C101.629 6.39101 101.708 6.47198 101.773 6.52007C101.837 6.5681 101.937 6.62047 102.186 6.66886C102.455 6.72112 102.81 6.75401 103.37 6.80429L103.634 6.828C104.464 6.90239 105.182 6.96673 105.712 7.09188C106.232 7.21489 106.922 7.47496 107.172 8.21991C107.422 8.9643 107.03 9.58837 106.69 10.0011C106.343 10.4211 105.81 10.9068 105.194 11.4685L104.703 11.9158C104.358 12.23 104.141 12.4292 103.986 12.5969C103.842 12.7528 103.796 12.8369 103.771 12.8988C103.756 12.9376 103.744 12.9774 103.734 13.0179C103.718 13.0825 103.707 13.1782 103.735 13.3888C103.765 13.6154 103.828 13.9037 103.929 14.3596L104.002 14.6856C104.172 15.4533 104.315 16.0989 104.371 16.5948C104.421 17.0424 104.452 17.7023 104.013 18.1915C103.783 18.4475 103.485 18.6319 103.153 18.7226C102.518 18.8961 101.942 18.5718 101.565 18.3258C101.148 18.0532 100.636 17.6353 100.027 17.1387L99.9866 17.1055C99.5514 16.7503 99.2715 16.523 99.0421 16.3693C98.8256 16.2243 98.7195 16.1911 98.6498 16.18C98.5506 16.1641 98.4496 16.1641 98.3504 16.18C98.2807 16.1911 98.1746 16.2243 97.9581 16.3693C97.7287 16.523 97.4488 16.7503 97.0136 17.1055L96.9729 17.1387C96.3644 17.6353 95.8524 18.0532 95.435 18.3258C95.0583 18.5718 94.482 18.8961 93.8471 18.7226C93.5154 18.6319 93.2169 18.4475 92.9874 18.1915C92.5487 17.7023 92.5792 17.0424 92.6296 16.5948C92.6855 16.0989 92.8285 15.4533 92.9986 14.6856L93.0708 14.3596C93.1718 13.9037 93.2349 13.6154 93.2649 13.3888C93.2928 13.1782 93.2824 13.0825 93.2665 13.0179C93.2565 12.9774 93.2439 12.9376 93.2288 12.8988C93.2046 12.8369 93.1581 12.7528 93.0142 12.5969C92.8594 12.4292 92.642 12.23 92.2971 11.9158L91.8063 11.4685C91.1899 10.9069 90.6568 10.4212 90.3105 10.0011C89.9703 9.58837 89.5778 8.9643 89.8278 8.21991C90.0779 7.47496 90.7681 7.21489 91.2885 7.09188C91.8179 6.96673 92.5358 6.90239 93.3658 6.828C93.3884 6.82597 93.4111 6.82394 93.4339 6.82189L93.6301 6.80429C94.1907 6.75401 94.5454 6.72112 94.8141 6.66886C95.0629 6.62047 95.1628 6.5681 95.2273 6.52007C95.2919 6.47198 95.3709 6.39101 95.4891 6.16596C95.6165 5.92312 95.7502 5.59215 95.9597 5.06906L95.9931 4.98556C96.0017 4.96416 96.0102 4.94284 96.0187 4.9216C96.3559 4.07961 96.6438 3.3605 96.9312 2.85868Z"/>
    </svg>
    <svg id="star-1" xmlns="http://www.w3.org/2000/svg" viewBox="0 0 21 21">
        <path fill-rule="evenodd" clip-rule="evenodd" d="M8.93153 2.85872C9.20581 2.37977 9.67448 1.74609 10.5004 1.74609C11.3264 1.74609 11.7951 2.37977 12.0694 2.85872C12.3567 3.36054 12.6447 4.07966 12.9818 4.92165L13.0409 5.06911C13.2504 5.5922 13.3841 5.92316 13.5115 6.166C13.6296 6.39105 13.7086 6.47202 13.7732 6.52012C13.8377 6.56814 13.9376 6.62051 14.1865 6.66891C14.4551 6.72116 14.8099 6.75406 15.3704 6.80434L15.6348 6.82805C16.4647 6.90243 17.1826 6.96678 17.7121 7.09193C18.2325 7.21494 18.9226 7.475 19.1728 8.21996C19.4227 8.96435 19.0302 9.58841 18.69 10.0011C18.3438 10.4212 17.8107 10.9069 17.1943 11.4685L16.7034 11.9158C16.3585 12.2301 16.1411 12.4292 15.9863 12.597C15.8424 12.7529 15.796 12.8369 15.7718 12.8988C15.7566 12.9377 15.744 12.9775 15.7341 13.018C15.7182 13.0826 15.7078 13.1782 15.7357 13.3889C15.7657 13.6154 15.8288 13.9038 15.9298 14.3597L16.002 14.6856C16.172 15.4533 16.3151 16.099 16.371 16.5948C16.4214 17.0424 16.4519 17.7023 16.0131 18.1916C15.7836 18.4475 15.4852 18.632 15.1534 18.7227C14.5186 18.8962 13.9422 18.5718 13.5656 18.3259C13.1481 18.0532 12.6362 17.6354 12.0277 17.1387L11.987 17.1055C11.5518 16.7503 11.2719 16.5231 11.0424 16.3694C10.826 16.2244 10.7199 16.1912 10.6502 16.18C10.551 16.1642 10.4499 16.1642 10.3507 16.18C10.281 16.1912 10.1749 16.2244 9.95845 16.3694C9.72901 16.5231 9.44911 16.7503 9.01391 17.1055L8.9732 17.1387C8.36472 17.6354 7.85276 18.0532 7.43531 18.3259C7.05865 18.5718 6.48228 18.8962 5.84743 18.7227C5.51568 18.632 5.21724 18.4475 4.98774 18.1916C4.54901 17.7023 4.57949 17.0424 4.62992 16.5948C4.68579 16.099 4.82884 15.4533 4.99892 14.6856L5.07113 14.3597C5.17212 13.9038 5.23522 13.6154 5.26521 13.3889C5.2931 13.1782 5.28271 13.0826 5.26681 13.018C5.25685 12.9775 5.24424 12.9377 5.22909 12.8988C5.20493 12.8369 5.15846 12.7529 5.01457 12.597C4.85977 12.4292 4.64236 12.2301 4.29745 11.9158L3.80665 11.4686C3.19019 10.9069 2.6571 10.4212 2.31085 10.0011C1.97063 9.58841 1.57816 8.96435 1.82811 8.21996C2.07826 7.475 2.76839 7.21494 3.28881 7.09193C3.81828 6.96678 4.53618 6.90243 5.3661 6.82805C5.38873 6.82602 5.41143 6.82398 5.43422 6.82194L5.63046 6.80434C6.19099 6.75406 6.54573 6.72116 6.81441 6.66891C7.06324 6.62051 7.16317 6.56814 7.22766 6.52012C7.29224 6.47202 7.37128 6.39105 7.48939 6.166C7.61683 5.92316 7.75052 5.5922 7.96001 5.0691L7.99345 4.9856C8.00202 4.96421 8.01056 4.94289 8.01907 4.92164C8.35621 4.07966 8.64416 3.36054 8.93153 2.85872Z"/>
    </svg>
    <svg id="messages" xmlns="http://www.w3.org/2000/svg" viewBox="0 0 20 20">
        <path d="M14.166 1.66406H5.83268C3.53268 1.66406 1.66602 3.5224 1.66602 5.81406V10.7974V11.6307C1.66602 13.9224 3.53268 15.7807 5.83268 15.7807H7.08268C7.30768 15.7807 7.60768 15.9307 7.74935 16.1141L8.99935 17.7724C9.54935 18.5057 10.4493 18.5057 10.9993 17.7724L12.2493 16.1141C12.4077 15.9057 12.6577 15.7807 12.916 15.7807H14.166C16.466 15.7807 18.3327 13.9224 18.3327 11.6307V5.81406C18.3327 3.5224 16.466 1.66406 14.166 1.66406ZM10.8327 11.4557H5.83268C5.49102 11.4557 5.20768 11.1724 5.20768 10.8307C5.20768 10.4891 5.49102 10.2057 5.83268 10.2057H10.8327C11.1743 10.2057 11.4577 10.4891 11.4577 10.8307C11.4577 11.1724 11.1743 11.4557 10.8327 11.4557ZM14.166 7.28906H5.83268C5.49102 7.28906 5.20768 7.00573 5.20768 6.66406C5.20768 6.3224 5.49102 6.03906 5.83268 6.03906H14.166C14.5077 6.03906 14.791 6.3224 14.791 6.66406C14.791 7.00573 14.5077 7.28906 14.166 7.28906Z"/>
    </svg>
    <svg id="log-out" xmlns="http://www.w3.org/2000/svg" viewBox="0 0 20 20">
        <path d="M14 1.66406H11.8333C9.16667 1.66406 7.5 3.33073 7.5 5.9974V9.3724H12.7083C13.05 9.3724 13.3333 9.65573 13.3333 9.9974C13.3333 10.3391 13.05 10.6224 12.7083 10.6224H7.5V13.9974C7.5 16.6641 9.16667 18.3307 11.8333 18.3307H13.9917C16.6583 18.3307 18.325 16.6641 18.325 13.9974V5.9974C18.3333 3.33073 16.6667 1.66406 14 1.66406Z"/>
        <path d="M3.79922 9.37552L5.52422 7.65052C5.64922 7.52552 5.70755 7.36719 5.70755 7.20885C5.70755 7.05052 5.64922 6.88385 5.52422 6.76719C5.28255 6.52552 4.88255 6.52552 4.64089 6.76719L1.84922 9.55885C1.60755 9.80052 1.60755 10.2005 1.84922 10.4422L4.64089 13.2339C4.88255 13.4755 5.28255 13.4755 5.52422 13.2339C5.76589 12.9922 5.76589 12.5922 5.52422 12.3505L3.79922 10.6255H7.49922V9.37552H3.79922Z"/>
    </svg>
    <svg id="settings" xmlns="http://www.w3.org/2000/svg" viewBox="0 0 20 20">
        <path d="M16.7493 7.6819C15.241 7.6819 14.6244 6.61523 15.3744 5.3069C15.8077 4.54856 15.5493 3.5819 14.791 3.14856L13.3493 2.32356C12.691 1.9319 11.841 2.16523 11.4493 2.82356L11.3577 2.9819C10.6077 4.29023 9.37435 4.29023 8.61602 2.9819L8.52435 2.82356C8.14935 2.16523 7.29935 1.9319 6.64102 2.32356L5.19935 3.14856C4.44102 3.5819 4.18268 4.5569 4.61602 5.31523C5.37435 6.61523 4.75768 7.6819 3.24935 7.6819C2.38268 7.6819 1.66602 8.39023 1.66602 9.26523V10.7319C1.66602 11.5986 2.37435 12.3152 3.24935 12.3152C4.75768 12.3152 5.37435 13.3819 4.61602 14.6902C4.18268 15.4486 4.44102 16.4152 5.19935 16.8486L6.64102 17.6736C7.29935 18.0652 8.14935 17.8319 8.54102 17.1736L8.63268 17.0152C9.38268 15.7069 10.616 15.7069 11.3743 17.0152L11.466 17.1736C11.8577 17.8319 12.7077 18.0652 13.366 17.6736L14.8077 16.8486C15.566 16.4152 15.8243 15.4402 15.391 14.6902C14.6327 13.3819 15.2494 12.3152 16.7577 12.3152C17.6244 12.3152 18.341 11.6069 18.341 10.7319V9.26523C18.3327 8.39856 17.6243 7.6819 16.7493 7.6819ZM9.99935 12.7069C8.50768 12.7069 7.29102 11.4902 7.29102 9.99856C7.29102 8.5069 8.50768 7.29023 9.99935 7.29023C11.491 7.29023 12.7077 8.5069 12.7077 9.99856C12.7077 11.4902 11.491 12.7069 9.99935 12.7069Z"/>
    </svg>
    <svg id="bag" xmlns="http://www.w3.org/2000/svg" viewBox="0 0 20 20" >
        <path d="M16.6338 7.46601C16.0754 6.84935 15.2338 6.49101 14.0671 6.36601V5.73268C14.0671 4.59101 13.5838 3.49101 12.7338 2.72435C11.8754 1.94101 10.7588 1.57435 9.60044 1.68268C7.60877 1.87435 5.93377 3.79935 5.93377 5.88268V6.36601C4.76711 6.49101 3.92544 6.84935 3.36711 7.46601C2.55877 8.36601 2.58377 9.56601 2.67544 10.3993L3.25877 15.041C3.43377 16.666 4.09211 18.3327 7.67544 18.3327H12.3254C15.9088 18.3327 16.5671 16.666 16.7421 15.0493L17.3254 10.391C17.4171 9.56601 17.4338 8.36601 16.6338 7.46601ZM9.71711 2.84101C10.5504 2.76601 11.3421 3.02435 11.9588 3.58268C12.5671 4.13268 12.9088 4.91601 12.9088 5.73268V6.31601H7.09211V5.88268C7.09211 4.39935 8.31711 2.97435 9.71711 2.84101ZM7.01711 10.9577H7.00877C6.55044 10.9577 6.17544 10.5827 6.17544 10.1243C6.17544 9.66601 6.55044 9.29101 7.00877 9.29101C7.47544 9.29101 7.85044 9.66601 7.85044 10.1243C7.85044 10.5827 7.47544 10.9577 7.01711 10.9577ZM12.8504 10.9577H12.8421C12.3838 10.9577 12.0088 10.5827 12.0088 10.1243C12.0088 9.66601 12.3838 9.29101 12.8421 9.29101C13.3088 9.29101 13.6838 9.66601 13.6838 10.1243C13.6838 10.5827 13.3088 10.9577 12.8504 10.9577Z"/>
    </svg>
    <svg id="profile" xmlns="http://www.w3.org/2000/svg"  viewBox="0 0 20 20">
        <path d="M9.99935 1.66406C7.81602 1.66406 6.04102 3.43906 6.04102 5.6224C6.04102 7.76406 7.71602 9.4974 9.89935 9.5724C9.96602 9.56406 10.0327 9.56406 10.0827 9.5724C10.0993 9.5724 10.1077 9.5724 10.1243 9.5724C10.1327 9.5724 10.1327 9.5724 10.141 9.5724C12.2743 9.4974 13.9493 7.76406 13.9577 5.6224C13.9577 3.43906 12.1827 1.66406 9.99935 1.66406Z"/>
        <path d="M14.2328 11.7953C11.9078 10.2453 8.11615 10.2453 5.77448 11.7953C4.71615 12.5036 4.13281 13.462 4.13281 14.487C4.13281 15.512 4.71615 16.462 5.76615 17.162C6.93281 17.9453 8.46615 18.337 9.99948 18.337C11.5328 18.337 13.0661 17.9453 14.2328 17.162C15.2828 16.4536 15.8661 15.5036 15.8661 14.4703C15.8578 13.4453 15.2828 12.4953 14.2328 11.7953Z"/>
    </svg>
    <svg id="send" xmlns="http://www.w3.org/2000/svg" viewBox="0 0 18 18">
        <path d="M12.1048 2.2193L5.33234 4.4693C0.779844 5.9918 0.779844 8.4743 5.33234 9.9893L7.34234 10.6568L8.00984 12.6668C9.52484 17.2193 12.0148 17.2193 13.5298 12.6668L15.7873 5.9018C16.7923 2.8643 15.1423 1.2068 12.1048 2.2193ZM12.3448 6.2543L9.49484 9.1193C9.38234 9.2318 9.23984 9.2843 9.09734 9.2843C8.95484 9.2843 8.81234 9.2318 8.69984 9.1193C8.48234 8.9018 8.48234 8.5418 8.69984 8.3243L11.5498 5.4593C11.7673 5.2418 12.1273 5.2418 12.3448 5.4593C12.5623 5.6768 12.5623 6.0368 12.3448 6.2543Z"/>
    </svg>
    <svg id="repeat" xmlns="http://www.w3.org/2000/svg" viewBox="0 0 20 20" fill="none">
        <path d="M2.98242 4.29688H14.5158C15.8991 4.29688 17.0158 5.41354 17.0158 6.79687V9.56355" stroke-width="1.5" stroke-miterlimit="10" stroke-linecap="round" stroke-linejoin="round"/>
        <path d="M5.61576 1.66406L2.98242 4.29737L5.61576 6.93074" stroke-width="1.5" stroke-miterlimit="10" stroke-linecap="round" stroke-linejoin="round"/>
        <path d="M17.0158 15.6964H5.48242C4.09909 15.6964 2.98242 14.5797 2.98242 13.1964V10.4297" stroke-width="1.5" stroke-miterlimit="10" stroke-linecap="round" stroke-linejoin="round"/>
        <path d="M14.3828 18.3292L17.0161 15.6959L14.3828 13.0625" stroke-width="1.5" stroke-miterlimit="10" stroke-linecap="round" stroke-linejoin="round"/>
    </svg>
    <svg id="catalog" xmlns="http://www.w3.org/2000/svg" viewBox="0 0 20 20">
        <path d="M16.4837 4.87511C16.4837 5.90605 15.648 6.74178 14.6171 6.74178C13.5861 6.74178 12.7504 5.90604 12.7504 4.87511C12.7504 3.84418 13.5861 3.00845 14.6171 3.00845C15.648 3.00845 16.4837 3.84418 16.4837 4.87511Z" stroke-width="1.2"/>
        <path d="M7.25033 4.87511C7.25033 5.90605 6.41459 6.74178 5.38366 6.74178C4.35273 6.74178 3.51699 5.90605 3.51699 4.87511C3.51699 3.84418 4.35273 3.00845 5.38366 3.00845C6.41459 3.00845 7.25033 3.84418 7.25033 4.87511Z" stroke-width="1.2"/>
        <path d="M16.4837 15.1251C16.4837 16.156 15.648 16.9918 14.6171 16.9918C13.5861 16.9918 12.7504 16.156 12.7504 15.1251C12.7504 14.0942 13.5861 13.2584 14.6171 13.2584C15.648 13.2584 16.4837 14.0942 16.4837 15.1251Z" stroke-width="1.2"/>
        <path d="M5.38366 17.5918C6.74596 17.5918 7.85033 16.4874 7.85033 15.1251C7.85033 13.7628 6.74596 12.6584 5.38366 12.6584C4.02136 12.6584 2.91699 13.7628 2.91699 15.1251C2.91699 16.4874 4.02136 17.5918 5.38366 17.5918Z" stroke-width="0"/>
    </svg>
</svg>
