<svg width="21" height="21" viewBox="0 0 21 21" fill="none" xmlns="http://www.w3.org/2000/svg">
<path d="M10.4497 2.34185L8.44134 7.01685H6.43301C6.09967 7.01685 5.77467 7.04185 5.45801 7.10852L6.29134 5.10852L6.32467 5.03352L6.37467 4.90018C6.39967 4.84185 6.41634 4.79185 6.44134 4.75018C7.40801 2.50852 8.49134 1.80852 10.4497 2.34185Z" fill="#1573FF"/>
<path d="M16.1079 7.24323L16.0913 7.2349C15.5913 7.09323 15.0829 7.01823 14.5663 7.01823H9.34961L11.2246 2.6599L11.2496 2.60156C11.3663 2.64323 11.4913 2.70156 11.6163 2.74323L13.4579 3.51823C14.4829 3.94323 15.1996 4.3849 15.6413 4.91823C15.7163 5.01823 15.7829 5.1099 15.8496 5.21823C15.9246 5.3349 15.9829 5.45156 16.0163 5.57656C16.0496 5.65156 16.0746 5.71823 16.0913 5.79323C16.2163 6.21823 16.2246 6.70156 16.1079 7.24323Z" fill="#1573FF"/>
<path d="M10.9336 15.2177H11.1419C11.3919 15.2177 11.6003 14.9927 11.6003 14.7177C11.6003 14.3677 11.5003 14.3177 11.2836 14.2344L10.9336 14.1094V15.2177Z" fill="#1573FF"/>
<path d="M15.7412 8.43229C15.3662 8.32396 14.9745 8.26562 14.5662 8.26562H6.43288C5.86621 8.26562 5.33288 8.37396 4.83288 8.59063C3.38288 9.21563 2.36621 10.6573 2.36621 12.3323V13.9573C2.36621 14.1573 2.38288 14.349 2.40788 14.549C2.59121 17.199 4.00788 18.6156 6.65788 18.7906C6.84954 18.8156 7.04121 18.8323 7.24954 18.8323H13.7495C16.8329 18.8323 18.4579 17.3656 18.6162 14.449C18.6245 14.2906 18.6329 14.124 18.6329 13.9573V12.3323C18.6329 10.4906 17.4079 8.94063 15.7412 8.43229ZM11.5662 13.4156C11.9495 13.549 12.4662 13.8323 12.4662 14.7156C12.4662 15.474 11.8745 16.0823 11.1412 16.0823H10.9329V16.2656C10.9329 16.5073 10.7412 16.699 10.4995 16.699C10.2579 16.699 10.0662 16.5073 10.0662 16.2656V16.0823H9.99121C9.19121 16.0823 8.53288 15.4073 8.53288 14.574C8.53288 14.3323 8.72454 14.1406 8.96621 14.1406C9.20788 14.1406 9.39954 14.3323 9.39954 14.574C9.39954 14.924 9.66621 15.2156 9.99121 15.2156H10.0662V13.8073L9.43288 13.5823C9.04954 13.449 8.53288 13.1656 8.53288 12.2823C8.53288 11.524 9.12454 10.9156 9.85788 10.9156H10.0662V10.7323C10.0662 10.4906 10.2579 10.299 10.4995 10.299C10.7412 10.299 10.9329 10.4906 10.9329 10.7323V10.9156H11.0079C11.8079 10.9156 12.4662 11.5906 12.4662 12.424C12.4662 12.6656 12.2745 12.8573 12.0329 12.8573C11.7912 12.8573 11.5995 12.6656 11.5995 12.424C11.5995 12.074 11.3329 11.7823 11.0079 11.7823H10.9329V13.1906L11.5662 13.4156Z" fill="#1573FF"/>
<path d="M9.40039 12.2852C9.40039 12.6352 9.50039 12.6852 9.71706 12.7685L10.0671 12.8935V11.7852H9.85872C9.60039 11.7852 9.40039 12.0102 9.40039 12.2852Z" fill="#1573FF"/>
</svg>
