<?xml version="1.0" encoding="utf-8" ?>
<svg xmlns="http://www.w3.org/2000/svg" xmlns:xlink="http://www.w3.org/1999/xlink" width="3497" height="1159">
	<path fill="#1D468D" d="M522.251 1065.2C514.707 1066.53 503.879 1066.93 496.283 1066.14C492.463 1065.74 487.711 1064.7 485.328 1061.41C484.002 1059.58 483.85 1057.38 484.187 1055.21C486.273 1041.77 510.144 1025.35 520.33 1017.85C573.97 978.373 694.291 919.653 760.37 929.68C698.502 977.492 582.761 1046.78 506.489 1064.85C511.694 1064.94 517.075 1064.74 522.251 1065.2Z"/>
	<path fill="#1D468D" d="M185.505 180.223C185.695 179.986 185.867 179.734 186.074 179.511C195.541 169.291 210.836 160.588 222.661 153.427C286.656 114.669 397.582 71.8407 472.754 72.1757L472.472 73.4458C497.359 76.5738 524.087 78.9538 540.771 100.489C542.504 102.725 543.947 105.167 545.332 107.629C480.832 117.526 419.422 133.877 357.95 155.74C361.242 148.3 364.648 140.328 361.637 132.195C359.998 127.767 356.895 124.9 352.631 122.989C338.445 116.632 317.02 121.698 303.048 127.273C280.475 136.279 265.771 154.081 246.653 167.903C234.821 176.457 195.68 198.93 181.869 193.516C180.858 192.235 180.063 191.736 180.447 189.925C181.174 186.493 184.756 184.005 185.505 180.223Z"/>
	<path fill="#447CDF" d="M907.796 798.39C923.221 780.683 938.284 761.634 950.471 741.541Q957.382 730.033 963.543 718.107C966.887 711.533 973.043 693.707 977.291 689.515C972.083 714.723 963.345 739.723 953.457 763.438C915.017 855.626 850.354 930.732 767.146 985.452C695.349 1032.67 608.646 1063.03 522.251 1065.2C517.075 1064.74 511.694 1064.94 506.489 1064.85C582.761 1046.78 698.502 977.492 760.37 929.68C771.702 923.095 782.642 913.506 792.956 905.391C834.299 872.864 872.894 837.778 907.796 798.39Z"/>
	<path fill="#1D468D" d="M940.638 588.248Q942.044 588.717 943.425 589.253Q944.807 589.789 946.161 590.391Q947.515 590.993 948.839 591.659Q950.163 592.324 951.453 593.053Q952.744 593.782 953.997 594.571Q955.251 595.361 956.466 596.21Q957.681 597.059 958.853 597.965Q960.026 598.872 961.153 599.833Q962.281 600.795 963.361 601.809Q964.441 602.823 965.472 603.888Q966.502 604.953 967.48 606.067Q968.458 607.18 969.382 608.339Q970.305 609.498 971.172 610.699Q972.039 611.901 972.848 613.143Q973.656 614.385 974.404 615.665Q975.151 616.944 975.837 618.258C986.032 638.172 985.157 666.903 977.953 687.791C977.752 688.373 977.53 688.947 977.291 689.515C973.043 693.707 966.887 711.533 963.543 718.107Q957.382 730.033 950.471 741.541C938.284 761.634 923.221 780.683 907.796 798.39C906.227 796.137 904.338 793.893 902.197 792.159C885.959 779.004 833.912 774.225 812.988 773.861C797.539 773.593 782.283 774.605 766.94 776.326C832.971 721.427 893.89 660.597 940.638 588.248Z"/>
	<path fill="#447CDF" d="M2620.39 200.499C2624.07 200.033 2629.46 200.067 2632.58 202.249L2632.22 204.142L2632.76 202.979C2631.52 215.135 2626.28 254.42 2620.89 263.923Q2648.35 263.152 2675.71 260.645C2687.22 259.69 2699.03 258.076 2710.56 258.134C2713.55 258.149 2716.14 258.149 2718.7 259.854C2719.59 261.297 2720.05 262.538 2720.03 264.265C2719.95 271.97 2714.26 280.831 2708.78 285.905C2704.66 289.714 2699.92 291.89 2694.34 292.473C2681.39 293.827 2664.6 289.425 2651.6 287.718C2640.12 286.21 2628.74 285.432 2617.17 284.955C2620.52 291.479 2586.71 452.951 2584.66 477.841C2583.76 488.677 2583.86 501.591 2591.38 510.234C2597.32 517.061 2606.28 520.091 2615.06 520.988C2655.72 525.144 2683.9 490.718 2692.33 491.261C2694.31 492.866 2694.24 492.972 2694.69 495.5L2694.94 496.953C2692.61 505.342 2649.18 536.38 2639.83 541.868C2615.59 556.101 2586.19 563.044 2558.56 555.661C2542.35 551.333 2531.15 541.453 2526.68 525.031C2519.8 499.726 2529.75 467.175 2534.35 441.919L2550.29 355.215C2553.41 338.318 2557.47 321.013 2558.96 303.889C2559.44 298.398 2560.47 289.31 2557.43 284.65C2553.06 277.959 2541.43 278.143 2534.41 276.896C2531.3 276.343 2530.1 275.488 2528.36 273.011C2528.42 270.56 2528.67 269.225 2530.1 267.205C2534.16 264.891 2543.07 265.959 2547.97 265.133C2574.41 260.682 2594.38 243.16 2608.38 221.097C2612.6 214.443 2615.85 206.851 2620.39 200.499Z"/>
	<path fill="#447CDF" d="M185.505 180.223C184.756 184.005 181.174 186.493 180.447 189.925C180.063 191.736 180.858 192.235 181.869 193.516C195.68 198.93 234.821 176.457 246.653 167.903C265.771 154.081 280.475 136.279 303.048 127.273C317.02 121.698 338.445 116.632 352.631 122.989C356.895 124.9 359.998 127.767 361.637 132.195C364.648 140.328 361.242 148.3 357.95 155.74C319.753 225.817 180.921 313.778 104.541 336.312C94.8195 339.181 73.7412 345.63 64.6337 340.392Q64.3091 340.208 64.0051 339.991Q63.7012 339.775 63.421 339.528Q63.1409 339.282 62.8876 339.008Q62.6343 338.734 62.4104 338.435Q62.1866 338.136 61.9946 337.816Q61.8026 337.496 61.6445 337.158Q61.4865 336.82 61.3639 336.468Q61.2414 336.115 61.1557 335.752C58.6828 324.974 80.0629 296.311 86.6798 286.439Q95.2124 273.866 104.521 261.856Q113.83 249.846 123.877 238.447Q133.925 227.048 144.671 216.305Q155.417 205.562 166.82 195.519C172.625 190.394 178.978 184.289 185.505 180.223Z"/>
	<path fill="#447CDF" d="M1751.29 248.499C1771.23 246.704 1795.5 245.563 1813.25 256.458C1820.73 261.054 1826.54 267.938 1828.5 276.626C1831.21 288.657 1826.1 301.678 1819.54 311.593C1787.9 359.474 1707.15 379.719 1653.82 390.64C1650.61 424.164 1648.74 459.746 1665.4 490.37C1674.21 506.568 1687.89 519.101 1705.85 524.309C1731.79 531.831 1761.75 525.217 1785.31 513.159C1790.54 510.481 1795.06 506.787 1800.19 503.916C1801.33 503.927 1802.07 503.929 1803.11 504.47C1804.88 505.392 1804.99 505.468 1805.53 507.383C1804.22 512.091 1800.68 514.227 1796.71 516.504C1796.49 517.209 1796.46 517.461 1795.95 518.122C1793.95 520.686 1789.9 523.296 1787.29 525.302C1766.5 541.29 1740.84 551.852 1715.09 556.377C1686.53 561.396 1653.34 559.585 1628.94 542.351C1606.63 526.597 1594.17 501.48 1589.72 475.046C1581.06 423.583 1597.06 370.273 1627.02 328.318C1657.5 285.625 1699.34 257.123 1751.29 248.499ZM1726.24 268.499C1705.61 273.798 1692.11 287.358 1681.51 305.17C1674.32 317.276 1669.19 330.332 1664.89 343.704C1662.6 350.815 1657.67 375.568 1655.05 379.212C1662.37 377.552 1675.89 375.948 1681.98 371.493C1707.2 365.931 1737.17 350.178 1751.5 327.938C1758.64 316.857 1764.34 300.495 1761.53 287.202C1760.27 281.197 1756.77 276.231 1751.58 272.975C1743.77 268.07 1735.13 267.752 1726.24 268.499Z"/>
	<path fill="#1D468D" d="M581.727 414.491C634.436 363.999 719.264 280.593 733.228 207.14C782.106 207.655 835.125 213.156 871.204 249.803Q874.586 253.221 877.36 257.149C877.37 257.322 877.374 257.495 877.389 257.667C878.125 265.99 885.241 275.201 887.596 283.624C897.105 317.631 887.708 354.079 874.086 385.539C789.713 367.272 663.971 391.933 581.727 414.491Z"/>
	<path fill="#447CDF" d="M3228.31 676.5C3240.85 675.309 3253.65 675.809 3266.24 675.833C3266.57 676.388 3266.67 676.531 3266.96 677.183C3269.27 682.416 3269.03 758.068 3266.74 764.494C3248.92 764.453 3229.32 762.619 3212.05 767.274C3193.93 772.155 3180.78 783.91 3173.9 801.425C3171.12 808.498 3169.79 815.993 3169.11 823.533C3167.23 844.213 3168.45 865.844 3168.47 886.622C3168.49 919.665 3168.08 952.765 3168.53 985.8C3168.64 993.746 3170.53 1015.32 3167.03 1021.47L3095.75 1021.47L3079.43 1021.47C3080 1020.55 3080.46 1019.6 3080.75 1018.56C3082.86 1010.89 3081.18 951.168 3081.19 936.495C3081.21 854.088 3082.56 771.425 3081.13 689.046C3081.08 686.049 3081.08 683.67 3079.5 681.001L3167.26 681.001C3167.49 681.376 3167.84 681.9 3168 682.337C3169.9 687.415 3168.94 699.311 3166.62 704.189C3172.46 701.73 3178.19 697.087 3183.64 693.76C3197.94 685.041 3211.94 679.892 3228.31 676.5Z"/>
	<path fill="#447CDF" d="M2232.39 251.5C2240.41 250.385 2249.23 249.627 2257.07 252.043C2269.32 255.814 2276.05 266.102 2278.18 278.316C2281.55 297.709 2275.43 319.519 2271.69 338.511L2255.59 420.226C2251.76 439.704 2246.64 459.795 2246.09 479.7C2245.84 488.719 2246.53 498.817 2250.89 506.895C2254.11 512.879 2259.08 517.731 2265.72 519.625C2275.06 522.29 2286.26 519.065 2294.46 514.446C2344.72 486.132 2377.13 381.952 2389.97 327.32C2393.69 311.474 2396.8 295.446 2400.14 279.512C2401.19 274.463 2401.6 269.142 2403.03 264.2C2404.17 260.269 2406.76 257.565 2410.33 255.728C2421.03 250.224 2445.68 248.999 2457.02 253.229C2458.53 253.79 2460.33 254.576 2460.76 256.257C2462.16 261.663 2457.75 275.124 2456.54 280.787C2446.87 326.131 2439.21 371.903 2430.75 417.487C2426.14 442.377 2418.88 469.633 2417.27 494.772C2416.85 501.246 2417.08 508.381 2420.06 514.293C2421.7 517.542 2424.19 520.234 2427.81 521.226C2432.9 522.624 2438.52 520.31 2442.98 517.968C2449.9 514.331 2469.7 500.526 2471.88 493.503C2474.87 492.008 2476.19 489.457 2479.61 488.383C2482.01 489.127 2482.26 489.264 2483.82 491.224C2483.91 492.924 2483.78 494.108 2483.05 495.674C2476.27 510.16 2445.15 536.457 2431.53 545.022C2426.77 548.015 2421.48 550.331 2416.18 552.209C2404.02 556.519 2387.57 558.955 2375.56 553.042C2347 538.979 2367.12 467.648 2371.57 442.621C2372.97 434.738 2376.07 424.351 2373.31 416.644C2373.19 416.308 2373.06 415.976 2372.94 415.641C2373.32 417.949 2373.54 419.869 2372.87 422.14C2369.79 432.536 2364.52 442.446 2359.76 452.155C2341.74 488.938 2317.31 529.401 2279.93 549.285C2261.62 559.025 2239.66 562.691 2219.6 556.425C2168.95 540.613 2192.92 459.346 2200.2 422.615L2215.91 343.334C2218.61 329.632 2225.58 305.586 2218.56 292.6C2217 289.729 2214.68 287.447 2211.46 286.583C2195.6 282.322 2179.15 307.216 2167.47 314.148C2164.8 315.735 2162.86 316.153 2159.89 315.381L2159.03 313.24C2159.27 311.707 2159.69 310.336 2160.4 308.951C2163.29 303.321 2169.63 298.063 2173.98 293.48C2191.77 274.699 2207.54 259.864 2232.39 251.5Z"/>
	<path fill="#1D468D" d="M138.136 909.462C136.28 907.998 135.2 906.13 134.703 903.809C133.019 895.932 138.487 886.653 142.461 880.127C156.207 857.548 189.316 833.434 211.328 817.614C343.237 722.807 534.507 640.668 692.207 602.343C668.078 625.952 639.686 647.015 612.93 667.571C506.433 749.394 368.109 839.244 243.319 889.498C216.373 900.349 184.856 912.972 155.54 912.594C149.428 912.516 143.901 911.429 138.136 909.462Z"/>
	<path fill="#447CDF" d="M3340.55 608.513L3428.07 608.512C3428.62 609.408 3429.1 610.338 3429.38 611.36C3431.08 617.476 3430.49 676.45 3428.22 680.839C3450.72 680.804 3473.32 680.365 3495.81 681.058L3496.74 680.946C3497.32 697.265 3497.05 713.647 3497.05 729.975C3497.05 740.836 3497.67 752.181 3496.68 763L3495.74 762.833C3473.32 763.857 3450.52 763.008 3428.06 762.999C3431.61 768.986 3430.02 782.277 3430 789.427L3429.71 862.783C3429.68 877.976 3428.44 894.421 3431.24 909.388C3432.64 916.891 3435.37 924.541 3440.69 930.183C3452.32 942.502 3477.64 940.151 3493.33 940.611C3493.81 941.42 3494.22 942.241 3494.51 943.134C3496.49 949.095 3495.98 1017.17 3493.58 1021.81C3465.07 1021.83 3436.29 1022.39 3408.98 1012.85C3343.49 989.967 3342.46 933.001 3342.5 873.828Q3342.17 835.811 3342.53 797.795C3342.64 789.951 3344.48 769.632 3341.31 763.503C3341.22 763.331 3341.12 763.168 3341.02 763L3299.25 762.999C3299.81 762.102 3300.29 761.169 3300.57 760.144C3302.41 753.519 3301.64 695.296 3300.84 685.495C3300.68 683.653 3300.14 682.131 3299.25 680.513L3341.02 680.535C3341.63 679.558 3342.05 678.608 3342.3 677.471C3343.86 670.311 3343.23 622.391 3342.35 613.446C3342.17 611.59 3341.53 610.081 3340.55 608.513ZM3495.81 681.058C3496.38 708.079 3497.15 735.865 3495.74 762.833L3496.68 763C3497.67 752.181 3497.05 740.836 3497.05 729.975C3497.05 713.647 3497.32 697.265 3496.74 680.946L3495.81 681.058Z"/>
	<path fill="#447CDF" fill-opacity="0.25098041" d="M3495.81 681.058L3496.74 680.946C3497.32 697.265 3497.05 713.647 3497.05 729.975C3497.05 740.836 3497.67 752.181 3496.68 763L3495.74 762.833C3497.15 735.865 3496.38 708.079 3495.81 681.058Z"/>
	<path fill="#447CDF" d="M1952.12 681.499C1963.91 680.48 1976.2 681.125 1988.05 681.126L2052.95 681.165C2053.2 681.32 2053.45 681.465 2053.69 681.629C2057.69 684.34 2112.41 771.358 2112.98 774.584C2113.5 774.215 2113.76 774.067 2114.21 773.652C2119.16 769.048 2170.64 685.575 2170.99 681.167L2269.61 681.165C2269.62 681.334 2269.66 681.504 2269.65 681.674C2269.54 684.547 2167.32 844.404 2160.95 849.985C2163.43 851.672 2164.79 853.922 2166.42 856.362C2193.43 896.56 2218.64 938.262 2244.62 979.143C2249.98 987.58 2268.41 1013.56 2270.56 1020.15L2269.69 1021.69L2265.77 1021.81L2169.45 1021.81C2169.42 1021.43 2169.43 1021.04 2169.36 1020.67C2168.53 1016.47 2111.47 929.158 2108.02 926.43C2108.05 926.669 2108.12 926.907 2108.11 927.148C2108.06 931.433 2053.5 1018.38 2049.35 1021.81L1949.73 1021.81C1950.44 1021.35 1951.09 1020.86 1951.73 1020.29C1957.49 1015.21 1979.94 977.545 1986.16 967.919L2034.27 893.29C2042.49 880.545 2051.26 867.942 2058.93 854.877C2059.6 853.738 2059.83 852.631 2059.91 851.333C2059.93 851.122 2059.98 850.912 2059.97 850.7C2059.83 847.528 1958.19 687.372 1952.12 681.499Z"/>
	<path fill="#447CDF" d="M2113.09 240.499C2113.46 240.414 2113.84 240.321 2114.21 240.244C2117.34 239.602 2119.85 240.138 2122.41 241.867C2123.4 250.318 2116.66 277.264 2114.89 286.875L2091.01 417.206C2087.21 438.219 2074.47 489.481 2077.7 508.226C2078.39 512.237 2079.88 517.102 2083.54 519.367C2099.56 529.259 2124.22 493.3 2134.98 490.428C2137.29 491.518 2137.66 492.098 2139.16 494.21C2139.18 495.129 2139.2 495.672 2138.87 496.542C2136.99 501.475 2130.78 507.168 2127.13 511.001C2111.78 527.105 2093.2 546.24 2071.48 553.392C2060.45 557.024 2046.67 558.02 2036.07 552.468C2007.64 537.564 2024.03 474.943 2028.47 450.393C2029.81 443.019 2033.1 432.532 2030.69 425.35C2030.59 425.074 2030.49 424.801 2030.4 424.526C2030.5 425.715 2030.57 426.949 2030.35 428.131C2028.42 438.637 1998.67 484.908 1990.16 490.509C1990.09 490.822 1990.05 491.142 1989.96 491.448C1985.93 504.73 1941.95 539.53 1927.97 546.937C1909.49 556.727 1885.86 563.607 1865.23 556.976Q1864.15 556.64 1863.09 556.249Q1862.02 555.858 1860.98 555.413Q1859.94 554.969 1858.92 554.472Q1857.9 553.975 1856.91 553.427Q1855.92 552.879 1854.96 552.282Q1854 551.684 1853.07 551.038Q1852.14 550.392 1851.24 549.7Q1850.34 549.007 1849.48 548.27Q1848.62 547.533 1847.8 546.753Q1846.98 545.974 1846.2 545.153Q1845.42 544.332 1844.68 543.473Q1843.94 542.614 1843.25 541.718Q1842.56 540.822 1841.91 539.893Q1841.26 538.963 1840.66 538.001Q1840.07 537.04 1839.52 536.049Q1838.97 535.058 1838.47 534.041C1825.4 507.642 1835.03 466.346 1843.76 439.908C1866.55 370.85 1923.93 293.356 1989.88 260.268C2015.05 247.643 2043.29 243.539 2070.3 252.623C2076.81 254.809 2088.22 260.357 2091.44 266.863C2092.83 266.261 2094.14 265.439 2095.36 264.541C2101.78 259.796 2111.89 248.543 2113.09 240.499ZM1998.82 281.499C1966.11 289.706 1943.1 314.199 1926.18 342.336C1905.2 377.211 1884.2 442.437 1894.15 483.038C1896.34 491.995 1900.81 500.957 1908.91 505.908C1916.03 510.256 1925.6 510.978 1933.56 508.923C1934.48 508.687 1935.38 508.482 1936.21 508.015C1967.07 500.972 1993.73 465.428 2009.59 440.183C2030.5 406.9 2055.56 354.694 2046.56 314.115C2044.18 303.373 2038.89 293.208 2029.39 287.181C2020.37 281.463 2009.24 280.167 1998.82 281.499Z"/>
	<path fill="#447CDF" d="M1410.9 0L1414.86 0C1417.38 1.54733 1419.09 2.54051 1420.34 5.38205C1420.4 16.6757 1416.52 29.7342 1414.5 40.9526L1400.77 117.163L1371.34 282.098C1366.35 310.085 1362.02 338.383 1356.25 366.207C1355.43 370.181 1354.44 373.134 1352.03 376.425C1352.19 376.285 1352.36 376.15 1352.52 376.004C1352.79 375.763 1353.04 375.509 1353.31 375.267C1360.08 369.101 1368.6 348.947 1373.82 340.098C1387.26 317.319 1405.73 295.657 1426.3 279.01C1450.78 259.207 1481.8 244.226 1514.07 247.852C1529.03 249.534 1542.02 256.473 1551.43 268.274C1568.59 289.782 1571.09 319.848 1567.89 346.179Q1567.54 349.228 1567.11 352.268Q1566.68 355.308 1566.18 358.336Q1565.68 361.364 1565.1 364.379Q1564.52 367.394 1563.87 370.394Q1563.22 373.393 1562.49 376.376Q1561.77 379.359 1560.97 382.323Q1560.17 385.287 1559.3 388.23Q1558.42 391.173 1557.48 394.094Q1556.53 397.014 1555.52 399.911Q1554.5 402.808 1553.41 405.678Q1552.33 408.549 1551.17 411.392Q1550.01 414.234 1548.78 417.048Q1547.55 419.861 1546.26 422.643Q1544.96 425.425 1543.59 428.175Q1542.23 430.924 1540.79 433.639Q1539.36 436.353 1537.86 439.032Q1536.36 441.71 1534.8 444.351Q1533.23 446.992 1531.6 449.593Q1529.97 452.194 1528.28 454.754Q1526.58 457.314 1524.83 459.832Q1523.07 462.349 1521.25 464.823Q1519.44 467.296 1517.56 469.724Q1515.68 472.151 1513.74 474.532Q1511.8 476.912 1509.81 479.244Q1507.81 481.576 1505.76 483.858Q1503.7 486.14 1501.59 488.371Q1499.48 490.601 1497.32 492.779Q1495.16 494.957 1492.94 497.081Q1490.72 499.204 1488.46 501.272Q1486.19 503.341 1483.87 505.352Q1481.55 507.364 1479.18 509.318Q1476.82 511.271 1474.4 513.166C1436.45 542.682 1388.5 564.56 1339.48 558.283C1320.18 555.811 1300.05 548.637 1287.89 532.62C1280.17 522.456 1277.21 510.256 1277.53 497.637C1277.86 484.661 1281.4 471.941 1283.79 459.248L1295.58 395.501L1333.81 190.237C1339.94 157.221 1347.77 123.737 1352.24 90.4904C1353.55 80.7225 1355.45 66.3805 1348.7 58.2651C1335.72 42.6602 1312.3 64.5366 1302.22 63.6042C1300.39 61.7971 1300.36 61.1619 1299.76 58.6126C1299.97 57.8525 1300.17 56.294 1300.57 55.6788C1302.6 52.5045 1407.75 5.01813 1410.45 0.776898C1410.61 0.524401 1410.75 0.258966 1410.9 0ZM1458.02 293.499C1424.51 300.594 1401.58 321.979 1383.26 350.167C1364.35 379.247 1329.23 464.69 1336.8 500.846Q1337.03 501.973 1337.32 503.086Q1337.61 504.199 1337.96 505.297Q1338.31 506.394 1338.71 507.472Q1339.11 508.551 1339.56 509.608Q1340.02 510.665 1340.53 511.697Q1341.03 512.73 1341.59 513.736Q1342.15 514.742 1342.76 515.718Q1343.37 516.694 1344.02 517.639Q1344.68 518.583 1345.39 519.493Q1346.09 520.403 1346.84 521.277Q1347.59 522.15 1348.38 522.985Q1349.17 523.82 1350 524.613Q1350.84 525.407 1351.71 526.158Q1352.58 526.908 1353.49 527.614Q1354.4 528.32 1355.34 528.979Q1356.28 529.638 1357.26 530.249C1364.3 534.679 1371.66 536.933 1379.77 538.501C1401.82 539.917 1419.98 532.559 1436.35 518.175C1472.94 486.018 1489.78 436.259 1498.72 389.862C1500.9 378.549 1503.27 367.14 1503.97 355.622C1505 338.585 1503.49 316.683 1491.84 303.311C1486.17 296.802 1478.52 293.638 1469.99 293.087C1466.07 292.833 1461.93 293.164 1458.02 293.499Z"/>
	<path fill="#447CDF" d="M1758.21 677.501C1801.74 674.946 1842.77 683.83 1878.23 710.277C1913.67 736.714 1935.46 777.375 1941.67 820.804C1943.35 832.508 1946.92 874.838 1939.9 884.165L1693.6 884.17C1696.31 887.344 1697.26 891.867 1698.94 895.675C1702.65 904.075 1706.96 912.154 1713.1 919.057C1726.52 934.149 1746.39 941.74 1766.23 942.971C1788.16 944.332 1811.05 938.423 1827.64 923.48C1832.45 919.149 1842.67 908.498 1842.96 902.023L1925.75 902.02C1929.49 901.936 1933.14 901.874 1936.86 902.263C1937.79 914.933 1917.09 950.283 1909.09 960.848Q1907.87 962.452 1906.6 964.025Q1905.34 965.598 1904.04 967.139Q1902.74 968.68 1901.4 970.189Q1900.06 971.697 1898.69 973.172Q1897.31 974.646 1895.9 976.087Q1894.49 977.527 1893.04 978.931Q1891.59 980.336 1890.11 981.704Q1888.63 983.073 1887.11 984.404Q1885.6 985.735 1884.05 987.028Q1882.5 988.322 1880.92 989.576Q1879.34 990.83 1877.73 992.045Q1876.12 993.26 1874.48 994.434Q1872.84 995.609 1871.18 996.742Q1869.51 997.876 1867.81 998.968Q1866.11 1000.06 1864.39 1001.11Q1862.67 1002.16 1860.92 1003.16Q1859.17 1004.17 1857.4 1005.13Q1855.63 1006.1 1853.83 1007.01Q1852.04 1007.93 1850.22 1008.81Q1848.4 1009.68 1846.56 1010.51Q1844.72 1011.34 1842.86 1012.12Q1841.01 1012.9 1839.13 1013.64Q1837.25 1014.37 1835.35 1015.06Q1833.46 1015.75 1831.55 1016.39Q1829.63 1017.03 1827.71 1017.63Q1825.78 1018.22 1823.84 1018.77Q1821.9 1019.32 1819.94 1019.81Q1817.99 1020.31 1816.02 1020.76Q1814.06 1021.21 1812.08 1021.61Q1810.1 1022.01 1808.12 1022.36Q1806.13 1022.71 1804.14 1023.02Q1802.14 1023.32 1800.14 1023.57C1753.59 1029.79 1705.64 1021.24 1667.83 992.139C1631.77 964.389 1610.59 924.069 1604.95 879.223C1598.67 829.284 1608.55 779.366 1639.85 739.228C1669.55 701.139 1711.2 683.233 1758.21 677.501ZM1768.17 759.5C1744.74 762.32 1724.67 770.125 1709.44 789.278C1704.3 795.741 1700.75 807.208 1694.74 812.192L1775.75 812.191L1847.92 812.192C1848.61 805.235 1839.6 793.507 1835.24 788.132C1821.95 771.738 1802.62 761.976 1781.68 759.995C1777.2 759.572 1772.66 759.309 1768.17 759.5Z"/>
	<path fill="#447CDF" d="M2405.07 704.542C2442.23 679.241 2486.15 672.055 2530 680.351Q2531.86 680.69 2533.71 681.074Q2535.57 681.459 2537.41 681.89Q2539.25 682.32 2541.08 682.796Q2542.92 683.271 2544.74 683.792Q2546.55 684.313 2548.36 684.879Q2550.17 685.445 2551.96 686.055Q2553.75 686.665 2555.52 687.319Q2557.3 687.974 2559.06 688.672Q2560.82 689.37 2562.56 690.111Q2564.3 690.852 2566.02 691.636Q2567.75 692.42 2569.45 693.247Q2571.15 694.073 2572.83 694.941Q2574.51 695.809 2576.17 696.719Q2577.83 697.628 2579.47 698.579Q2581.1 699.529 2582.72 700.519Q2584.33 701.51 2585.92 702.539Q2587.5 703.569 2589.07 704.638Q2590.63 705.707 2592.16 706.814Q2593.7 707.921 2595.2 709.066Q2596.71 710.211 2598.19 711.392Q2599.67 712.574 2601.12 713.792Q2602.56 715.009 2603.98 716.263Q2605.4 717.516 2606.79 718.804Q2608.17 720.092 2609.53 721.413Q2610.88 722.735 2612.2 724.09Q2613.52 725.445 2614.81 726.832Q2616.1 728.219 2617.35 729.637Q2618.6 731.056 2619.82 732.505Q2621.04 733.954 2622.22 735.432Q2623.4 736.911 2624.54 738.418Q2625.69 739.926 2626.8 741.461Q2627.9 742.996 2628.97 744.558C2657.99 787.155 2665.69 842.099 2655.95 892.159C2647.73 934.481 2624.68 974.081 2588.53 998.391C2551.85 1023.06 2505.55 1031.21 2462.37 1022.67Q2456.23 1021.48 2450.22 1019.78Q2444.2 1018.07 2438.35 1015.88Q2432.49 1013.68 2426.85 1011Q2421.2 1008.32 2415.79 1005.18C2412 1002.98 2408.73 1000.04 2404.89 997.933C2407.29 1006.3 2407.16 1145.33 2405.53 1157.95L2405.71 1159L2317.33 1159C2318.61 1156.86 2318.85 1155.13 2318.93 1152.69C2319.81 1123.7 2319.01 1094.44 2319.02 1065.43L2319.04 893.923L2319.04 755.305C2319.04 730.708 2319.92 705.726 2318.74 681.171Q2361.49 680.767 2404.24 681C2407.56 686.327 2406.27 698.414 2405.07 704.542ZM2482.2 759.5C2459.07 762.563 2439.41 770.913 2424.85 789.976C2407.99 812.045 2403.29 841.421 2407.04 868.471C2410.22 891.45 2420.97 913.716 2439.78 927.886C2454.22 938.768 2475.56 945.757 2493.75 943.351C2494.08 943.306 2494.42 943.227 2494.75 943.166C2514.37 942.651 2533.39 935.234 2547.15 920.94C2565.82 901.539 2572.74 873.595 2572.07 847.303C2571.44 822.664 2563.68 797.192 2545.33 779.867C2527.99 763.494 2505.29 758.81 2482.2 759.5ZM2317.33 1159L2405.71 1159L2405.53 1157.95C2376.47 1158.41 2347.33 1157.98 2318.26 1157.99C2318.63 1157.39 2318.73 1157.29 2318.99 1156.69C2320.89 1152.36 2321.28 728.236 2319.92 686.46C2319.86 684.506 2319.52 682.979 2318.74 681.171C2319.92 705.726 2319.04 730.708 2319.04 755.305L2319.04 893.923L2319.02 1065.43C2319.01 1094.44 2319.81 1123.7 2318.93 1152.69C2318.85 1155.13 2318.61 1156.86 2317.33 1159Z"/>
	<path fill="#447CDF" fill-opacity="0.75294119" d="M2317.33 1159C2318.61 1156.86 2318.85 1155.13 2318.93 1152.69C2319.81 1123.7 2319.01 1094.44 2319.02 1065.43L2319.04 893.923L2319.04 755.305C2319.04 730.708 2319.92 705.726 2318.74 681.171C2319.52 682.979 2319.86 684.506 2319.92 686.46C2321.28 728.236 2320.89 1152.36 2318.99 1156.69C2318.73 1157.29 2318.63 1157.39 2318.26 1157.99C2347.33 1157.98 2376.47 1158.41 2405.53 1157.95L2405.71 1159L2317.33 1159Z"/>
	<path fill="#447CDF" d="M2970.44 250.5C2976.1 249.733 2982.65 249.342 2988.29 250.282C2997.22 251.767 3004.98 255.852 3010.19 263.405C3021.61 279.947 3018.94 307.373 3015.31 326.103C2996.29 424.36 2907.02 565.05 2845.25 642.752C2835.02 655.625 2818.31 678.675 2805.17 687.518C2816.25 685.183 2826.92 681.495 2838.15 679.566C2884.28 671.648 2931.82 680.892 2970.21 708.12C3006.12 733.584 3028.82 773.475 3036 816.578C3038.01 828.639 3041.92 874.435 3034.96 884.17L2788.24 884.167C2792.99 889.201 2798.77 908.491 2807.96 918.955C2821.27 934.096 2841.4 941.72 2861.19 942.96C2882.78 944.312 2905.83 938.581 2922.2 923.887C2927.07 919.514 2937.65 908.615 2937.96 902.023L3030.91 902.02C3031.08 902.587 3031.15 902.7 3031.22 903.244C3032.74 915.232 3012.82 949.014 3005.57 958.882C2979.08 994.916 2939.48 1017.07 2895.49 1023.62C2851.78 1030.12 2805.23 1021.59 2768.51 996.488C2759.58 990.382 2752.46 982.244 2743.79 975.916L2743.21 975.495C2740.79 968.583 2726.22 954.088 2721.29 945.598C2697.96 905.424 2693.87 854.477 2702.18 809.55C2704.11 799.092 2707.46 789.047 2711.56 779.241C2714.08 773.226 2722.76 759.744 2723.18 754.265C2723.19 754.101 2723.19 753.936 2723.19 753.772C2723.05 753.899 2722.91 754.037 2722.76 754.153C2714.11 760.694 2694.88 763.221 2684.27 762.117C2674.09 761.058 2663.41 757.06 2656.94 748.783C2651.23 741.491 2649.81 731.72 2651.12 722.737C2652.47 713.397 2657.02 705.036 2664.65 699.369C2687.55 682.361 2714.2 696.835 2738.48 700.327C2755.3 702.747 2769.77 698.002 2783.18 687.829C2792.4 680.828 2829.58 642.552 2830.82 633.635C2834.45 626.214 2832.66 600.923 2832.59 591.833C2832.07 515.525 2830.71 435.239 2808.86 361.522C2802.16 338.912 2790.93 306.124 2768.66 294.343C2752.62 285.855 2736.11 291.225 2724.44 304.191C2720.21 308.893 2717.85 316.205 2711.57 318.166C2710.41 317.551 2710.11 317.375 2709.6 316.117C2708.37 313.036 2709.65 308.951 2710.88 306.037C2719.34 285.973 2745.94 263.817 2765.8 255.528C2779.35 249.867 2794.61 248.198 2808.42 254.024C2832.62 264.238 2847.59 292.476 2856.84 315.613C2881.78 378.032 2886.71 451.037 2886.67 517.628C2886.67 528.62 2888.4 546.319 2884.11 556.289L2884.59 555.889C2897.62 545.269 2945.39 453.827 2954.92 432.394C2969.16 400.383 2977.97 366.776 2963.14 333.337C2958.3 322.438 2951.32 312.458 2947.12 301.28C2943.4 291.365 2942.11 278.737 2946.67 268.867C2951.3 258.869 2960.55 253.995 2970.44 250.5ZM2863.16 759.5C2838.43 762.443 2819.05 770.826 2803.21 790.952C2798.39 797.071 2795.42 807.564 2789.8 812.179L2870.75 812.191L2942.92 812.179C2943.59 805.152 2934.06 792.655 2929.63 787.311C2916.2 771.137 2896.51 761.685 2875.71 759.902C2871.55 759.545 2867.33 759.343 2863.16 759.5Z"/>
	<path fill="#447CDF" d="M877.36 257.149C918.678 305.548 983.661 418.648 978.712 483.003C975.722 521.901 959.375 554.817 940.638 588.248C893.89 660.597 832.971 721.427 766.94 776.326Q737.62 800.695 707.175 823.644Q676.73 846.592 645.229 868.069C581.741 911.408 385.876 1033.39 308.547 1025.43C295.612 1024.1 283.705 1016.95 272.336 1011.07C221.69 984.86 177.452 950.74 138.136 909.462C143.901 911.429 149.428 912.516 155.54 912.594C184.856 912.972 216.373 900.349 243.319 889.498C368.109 839.244 506.433 749.394 612.93 667.571C639.686 647.015 668.078 625.952 692.207 602.343C700.206 598.408 716.855 580.757 724.192 573.912C783.252 518.812 838.63 458.84 874.086 385.539C887.708 354.079 897.105 317.631 887.596 283.624C885.241 275.201 878.125 265.99 877.389 257.667C877.374 257.495 877.37 257.322 877.36 257.149Z"/>
	<path fill="#447CDF" d="M472.754 72.1757C537.668 70.7701 600.265 78.6555 661.532 100.832C680.308 107.628 700.512 115.613 715.196 129.632C729.228 143.028 735.86 161.222 736.192 180.399C736.344 189.176 735.485 198.653 733.228 207.14C719.264 280.593 634.436 363.999 581.727 414.491C569.613 424.667 558.239 435.731 546.2 446.014Q504.376 481.589 460.497 514.596Q401.262 558.981 338.851 598.777C280.418 636.008 116.06 734.723 46.5157 727.998C38.4579 727.219 31.5077 724.979 25.5402 719.374Q21.2394 705.863 17.6274 692.152Q14.0155 678.442 11.1017 664.566Q8.18783 650.69 5.97959 636.684Q3.77134 622.678 2.27434 608.579C0.864372 596.015 3.05164 581.458 0 569.442L0 557.559C2.84618 546.108 1.71511 531.678 2.87571 519.715Q3.61854 516.389 4.83142 513.204Q6.04431 510.019 7.70211 507.041C47.1343 434.717 246.575 340.179 321.471 308.556Q360.998 291.723 401.392 277.092Q441.786 262.46 482.924 250.074C504.333 226.584 525.016 200.762 538.569 171.861C548.359 150.986 553.411 130.045 545.332 107.629C543.947 105.167 542.504 102.725 540.771 100.489C524.087 78.9538 497.359 76.5738 472.472 73.4458L472.754 72.1757Z"/>
	<path fill="#1D468D" d="M2.87571 519.715Q3.61854 516.389 4.83142 513.204Q6.04431 510.019 7.70211 507.041C47.1343 434.717 246.575 340.179 321.471 308.556Q360.998 291.723 401.392 277.092Q441.786 262.46 482.924 250.074C391.517 350.686 242.787 451.764 117.641 504.446C90.4237 515.904 58.3284 529.14 28.7322 530.529C21.4279 530.872 11.8974 530.135 6.39463 524.648C4.97282 523.23 3.90879 521.424 2.87571 519.715Z"/>
</svg>
