<svg xmlns="http://www.w3.org/2000/svg" width="41" height="26" viewBox="0 0 41 26" fill="none">
<g clip-path="url(#clip0_2_647)">
<g clip-path="url(#clip1_2_647)">
<g clip-path="url(#clip2_2_647)">
<path d="M25.6228 2.92114L14.8301 2.95894L15.1571 23.0889L25.9499 23.0511L25.6228 2.92114Z" fill="#FF5F00"/>
<path d="M15.5405 13.0623C15.4737 8.96805 17.274 5.33013 20.0938 2.9704C17.9653 1.26882 15.297 0.245596 12.4044 0.255689C5.55169 0.279599 0.101082 6.03092 0.216648 13.1158C0.332214 20.2006 5.96982 25.9132 12.8225 25.8893C15.7151 25.8792 18.3498 24.8375 20.4225 23.1213C17.5266 20.8171 15.6072 17.1566 15.5405 13.0623Z" fill="#EB001B"/>
<path d="M40.5632 12.8855C40.6788 19.9703 35.2282 25.7217 28.3755 25.7456C25.4829 25.7557 22.8146 24.7324 20.6861 23.0309C23.5404 20.671 25.3062 17.0332 25.2394 12.9389C25.1726 8.84467 23.2539 5.21972 20.3574 2.87994C22.4301 1.1637 25.0648 0.121984 27.9574 0.111891C34.81 0.08798 40.4482 5.83621 40.5632 12.8855Z" fill="#F79E1B"/>
</g>
</g>
</g>
<defs>
<clipPath id="clip0_2_647">
<rect width="41" height="26" fill="white"/>
</clipPath>
<clipPath id="clip1_2_647">
<rect width="41" height="26" fill="white"/>
</clipPath>
<clipPath id="clip2_2_647">
<rect width="41" height="26" fill="white"/>
</clipPath>
</defs>
</svg>