<svg xmlns="http://www.w3.org/2000/svg" width="50" height="26" viewBox="0 0 50 26" fill="none">
<g clip-path="url(#clip0_2_661)">
<g clip-path="url(#clip1_2_661)">
<path d="M44.689 5.5H35.1807C35.7345 8.5712 38.7809 11.4618 42.1042 11.4618H49.6739C49.7662 11.1908 49.7662 10.7391 49.7662 10.4681C49.7662 7.75824 47.4584 5.5 44.689 5.5Z" fill="url(#paint0_linear_2_661)"/>
<path d="M36.0117 12.0039V19.5012H40.6274V15.5267H44.6892C46.9047 15.5267 48.8433 13.9911 49.4895 12.0039H36.0117Z" fill="#4FAD50"/>
<path d="M19.7656 5.5V19.4107H23.8275C23.8275 19.4107 24.8429 19.4107 25.3968 18.4171C28.1662 13.0877 28.997 11.4618 28.997 11.4618H29.5509V19.4107H34.1666V5.5H30.1048C30.1048 5.5 29.0893 5.59033 28.5354 6.49363C26.2276 11.1004 24.9352 13.449 24.9352 13.449H24.3813V5.5H19.7656Z" fill="#4FAD50"/>
<path d="M0.378906 19.5006V5.58984H4.99459C4.99459 5.58984 6.287 5.58984 7.02551 7.57709C8.87178 12.8162 9.05642 13.5388 9.05642 13.5388C9.05642 13.5388 9.42566 12.2742 11.0873 7.57709C11.8258 5.58984 13.1182 5.58984 13.1182 5.58984H17.7339V19.5006H13.1182V12.0032H12.5643L9.97956 19.5006H7.94865L5.36387 12.0032H4.80998V19.5006H0.378906Z" fill="#4FAD50"/>
</g>
</g>
<defs>
<linearGradient id="paint0_linear_2_661" x1="35.1642" y1="8.5236" x2="49.7335" y2="8.5236" gradientUnits="userSpaceOnUse">
<stop stop-color="#27B1E6"/>
<stop offset="1" stop-color="#148ACA"/>
</linearGradient>
<clipPath id="clip0_2_661">
<rect width="50" height="26" fill="white"/>
</clipPath>
<clipPath id="clip1_2_661">
<rect width="50" height="15" fill="white" transform="translate(0 5.5)"/>
</clipPath>
</defs>
</svg>