<svg xmlns="http://www.w3.org/2000/svg" width="48" height="26" viewBox="0 0 48 26" fill="none">
<g clip-path="url(#clip0_2_668)">
<g clip-path="url(#clip1_2_668)">
<g clip-path="url(#clip2_2_668)">
<mask id="mask0_2_668" style="mask-type:luminance" maskUnits="userSpaceOnUse" x="0" y="0" width="48" height="26">
<path d="M47.0655 0H0.766602V25.9997H47.0655V0Z" fill="white"/>
</mask>
<g mask="url(#mask0_2_668)">
<path d="M47.0654 9.65039V16.1325H44.7791V11.5867H42.5773V16.1325H40.291V9.65039H47.0654Z" fill="#1C1637"/>
<path d="M39.2073 13.2586C39.2073 15.1462 37.6349 16.3915 35.5177 16.3915C33.3273 16.3915 31.7305 15.0731 31.7305 12.0848C31.7305 9.52092 33.368 7.40741 35.7925 7.36676C36.8544 7.36676 39.1358 7.31641 39.1358 7.31641L38.108 9.20225C38.108 9.20225 36.29 9.20555 36.0494 9.20555C35.0038 9.20555 34.0525 9.99247 33.9192 11.0687C34.4753 10.5484 35.2136 10.2461 36.1096 10.2461C38.0463 10.2461 39.2073 11.4313 39.2073 13.2586ZM36.8608 13.2586C36.8608 12.4116 36.3161 11.9158 35.529 11.9158C34.7176 11.9158 34.1745 12.423 34.1745 13.27C34.1745 14.0683 34.7192 14.6487 35.529 14.6487C36.3763 14.6503 36.8608 14.0211 36.8608 13.2586Z" fill="#1C1637"/>
<path d="M29.9171 14.1722C29.9171 14.1722 29.3642 14.4828 28.5398 14.5429C27.5901 14.5689 26.7462 13.9852 26.7462 12.9447C26.7462 11.9302 27.4925 11.3482 28.5154 11.3482C29.143 11.3482 29.974 11.7741 29.974 11.7741C29.974 11.7741 30.5821 10.6833 30.896 10.1402C30.3204 9.71268 29.5512 9.47852 28.6585 9.47852C26.4047 9.47852 24.6582 10.9158 24.6582 12.9334C24.6582 14.9769 26.299 16.3801 28.6585 16.3378C29.3187 16.3134 30.2277 16.0874 30.7822 15.7395L29.9171 14.1722Z" fill="#1C1637"/>
<path d="M0.766602 5.66016L3.92779 11.2887V14.7207L0.773118 20.3378L0.766602 5.66016Z" fill="#5B57A2"/>
<path d="M12.8975 9.24052L15.857 7.43268L21.9143 7.42773L12.8975 12.9343V9.24052Z" fill="#D90751"/>
<path d="M12.8802 5.62686L12.8965 13.0779L9.73047 11.1383V0L12.8802 5.62686Z" fill="#FAB718"/>
<path d="M21.9132 7.42665L15.856 7.4315L12.8802 5.62686L9.73047 0L21.9132 7.42665Z" fill="#ED6F26"/>
<path d="M12.8965 20.3679V16.7521L9.73047 14.8516V25.9996L12.8965 20.3679Z" fill="#63B22F"/>
<path d="M15.8488 18.5771L3.92779 11.2887L0.766602 5.66016L21.9013 18.5706L15.8488 18.5771Z" fill="#1487C9"/>
<path d="M9.73047 25.9982L12.8965 20.3664L15.8478 18.5749L21.9003 18.5684L9.73047 25.9982Z" fill="#017F36"/>
<path d="M0.773438 20.3381L9.7561 14.8527L6.73476 13.0059L3.92811 14.7211L0.773438 20.3381Z" fill="#984995"/>
</g>
</g>
</g>
</g>
<defs>
<clipPath id="clip0_2_668">
<rect width="48" height="26" fill="white"/>
</clipPath>
<clipPath id="clip1_2_668">
<rect width="48" height="26" fill="white"/>
</clipPath>
<clipPath id="clip2_2_668">
<rect width="48" height="26" fill="white"/>
</clipPath>
</defs>
</svg>